<?xml version="1.0" encoding="UTF-8"?>
<!DOCTYPE svg PUBLIC "-//W3C//DTD SVG 1.1//EN" "http://www.w3.org/Graphics/SVG/1.1/DTD/svg11.dtd">
<svg xmlns="http://www.w3.org/2000/svg" version="1.1" width="2162px" height="2162px" style="shape-rendering:geometricPrecision; text-rendering:geometricPrecision; image-rendering:optimizeQuality; fill-rule:evenodd; clip-rule:evenodd" xmlns:xlink="http://www.w3.org/1999/xlink">
<g><path style="opacity:0.904" fill="#000000" d="M 785.5,370.5 C 809.958,369.302 833.291,373.802 855.5,384C 883.953,401.061 893.953,425.561 885.5,457.5C 883.929,458.309 882.262,458.643 880.5,458.5C 881.537,434.402 871.537,416.568 850.5,405C 837.049,397.552 822.716,394.386 807.5,395.5C 827,439.833 846.5,484.167 866,528.5C 870.257,541.383 870.59,554.383 867,567.5C 862.996,579.173 857.663,590.173 851,600.5C 845.833,605.667 840.667,610.833 835.5,616C 810.858,627.264 795.025,619.764 788,593.5C 784.584,576.166 788.25,560.5 799,546.5C 804.134,540.365 809.634,534.531 815.5,529C 823.696,523.737 832.03,518.737 840.5,514C 820.968,467.734 801.635,421.401 782.5,375C 782.557,372.791 783.557,371.291 785.5,370.5 Z"/></g>
<g><path style="opacity:0.983" fill="#000000" d="M 536.5,446.5 C 570.421,445.706 604.088,448.206 637.5,454C 640.606,457.632 642.773,461.799 644,466.5C 650.776,486.606 656.776,506.939 662,527.5C 681.161,589.709 714.328,642.875 761.5,687C 779.321,699.746 797.654,711.746 816.5,723C 826.664,729.082 837.331,734.082 848.5,738C 851.311,741.294 850.978,744.294 847.5,747C 828.433,758.72 811.767,773.387 797.5,791C 796.167,791.667 794.833,791.667 793.5,791C 787.72,780.211 780.054,770.877 770.5,763C 754.888,752.388 739.555,741.388 724.5,730C 713.872,725.012 702.872,721.012 691.5,718C 673.102,714.79 654.602,712.29 636,710.5C 591.989,698.17 553.989,675.836 522,643.5C 515.297,669.718 521.797,691.885 541.5,710C 562.745,728.62 585.411,745.287 609.5,760C 636.056,778.208 660.556,799.041 683,822.5C 727.514,875.382 740.514,935.382 722,1002.5C 710.962,1052.28 696.295,1100.95 678,1148.5C 671.614,1162.94 663.948,1176.61 655,1189.5C 653.235,1191.77 651.068,1193.44 648.5,1194.5C 645.935,1194.1 644.601,1192.6 644.5,1190C 648.591,1152.4 644.091,1115.9 631,1080.5C 598.981,1024.15 555.147,979.314 499.5,946C 487.921,940.209 475.921,935.542 463.5,932C 458.256,929.797 453.422,926.964 449,923.5C 441.443,911.277 433.109,899.61 424,888.5C 406.709,863.191 391.042,836.858 377,809.5C 342.218,729.66 336.218,647.66 359,563.5C 367.382,535.484 382.549,511.984 404.5,493C 445.055,467.428 489.055,451.928 536.5,446.5 Z"/></g>
<g><path style="opacity:0.938" fill="#000000" d="M 934.5,495.5 C 938.182,495.335 941.848,495.501 945.5,496C 953.167,505.506 958,516.34 960,528.5C 962.368,553.928 969.368,577.928 981,600.5C 996.205,620.038 1013.7,637.205 1033.5,652C 1044.33,662.833 1055.17,673.667 1066,684.5C 1086.1,709.384 1098.6,737.717 1103.5,769.5C 1102.13,772.332 1101.13,775.332 1100.5,778.5C 1099.31,779.429 1097.98,779.762 1096.5,779.5C 1083.36,734.692 1058.03,698.526 1020.5,671C 998.28,658.967 978.78,643.467 962,624.5C 961.036,639.346 964.036,653.346 971,666.5C 975.086,673.007 979.42,679.34 984,685.5C 998,701.5 1012,717.5 1026,733.5C 1034.98,750.093 1040.98,767.76 1044,786.5C 1044.94,793.488 1045.27,800.488 1045,807.5C 1044.08,809.632 1042.75,810.299 1041,809.5C 1028.19,774.356 1008.69,743.522 982.5,717C 976.974,712.64 971.307,708.474 965.5,704.5C 964.904,767.511 963.738,830.511 962,893.5C 960.604,902.416 958.271,911.083 955,919.5C 941.646,950.847 920.479,975.347 891.5,993C 875.635,1002.01 858.635,1007.51 840.5,1009.5C 818.314,1006.48 805.481,993.815 802,971.5C 799.988,959.271 800.988,947.271 805,935.5C 822.692,890.524 855.859,866.024 904.5,862C 912.125,860.858 919.792,860.358 927.5,860.5C 930.455,740.859 931.955,621.192 932,501.5C 932.236,499.189 933.069,497.189 934.5,495.5 Z"/></g>
<g><path style="opacity:0.984" fill="#000000" d="M 1289.5,572.5 C 1302.86,572.287 1316.19,572.787 1329.5,574C 1389.32,591.487 1426.15,630.654 1440,691.5C 1440.9,699.004 1441.74,706.504 1442.5,714C 1444.29,716.134 1446.62,716.967 1449.5,716.5C 1450.56,690.354 1456.39,665.354 1467,641.5C 1496.52,598.982 1537.35,576.648 1589.5,574.5C 1619.52,574.667 1646.85,583.167 1671.5,600C 1679.08,604.241 1685.41,609.908 1690.5,617C 1694,619.833 1697.5,622.667 1701,625.5C 1708.58,636.998 1715.92,648.665 1723,660.5C 1736.55,686.068 1740.55,713.068 1735,741.5C 1728.08,770.062 1715.41,795.729 1697,818.5C 1680.27,836.194 1660.27,848.527 1637,855.5C 1636.33,873.833 1636.33,892.167 1637,910.5C 1640.75,911.15 1644.58,911.483 1648.5,911.5C 1659.17,911.016 1669.83,910.516 1680.5,910C 1681.31,905.251 1681.81,900.418 1682,895.5C 1682.5,895 1683,894.5 1683.5,894C 1697.85,893.323 1712.19,893.656 1726.5,895C 1727,895.5 1727.5,896 1728,896.5C 1727.96,933.459 1727.96,970.459 1728,1007.5C 1714.58,1008.72 1701.08,1009.22 1687.5,1009C 1685.67,1008.5 1684.5,1007.33 1684,1005.5C 1683.67,1001.5 1683.33,997.5 1683,993.5C 1682.5,993 1682,992.5 1681.5,992C 1666.8,990.722 1652.14,990.722 1637.5,992C 1637,992.5 1636.5,993 1636,993.5C 1634.56,1007.34 1634.39,1021.17 1635.5,1035C 1634.71,1047.81 1634.21,1060.64 1634,1073.5C 1632.5,1075 1631,1076.5 1629.5,1078C 1508.84,1079.41 1388.17,1080.08 1267.5,1080C 1257.17,1079.67 1246.83,1079.33 1236.5,1079C 1235.3,1078.1 1234.47,1076.93 1234,1075.5C 1232.41,1050.88 1231.24,1026.21 1230.5,1001.5C 1224.31,1001.45 1218.15,1001.78 1212,1002.5C 1205.7,1002.43 1199.7,1001.43 1194,999.5C 1193.33,965.167 1193.33,930.833 1194,896.5C 1194.96,895.106 1196.29,894.439 1198,894.5C 1200.64,895.013 1203.31,895.346 1206,895.5C 1214.83,894.762 1223.67,894.095 1232.5,893.5C 1233.11,878.834 1233.28,864.168 1233,849.5C 1217.53,840.032 1203.19,829.032 1190,816.5C 1164.25,786.25 1152.25,751.25 1154,711.5C 1156.21,680.448 1167.21,653.115 1187,629.5C 1214.59,598.624 1248.75,579.624 1289.5,572.5 Z M 1598.5,662.5 C 1630.6,666.099 1648.6,683.932 1652.5,716C 1648.67,747.833 1630.83,765.667 1599,769.5C 1576.24,767.958 1559.9,756.958 1550,736.5C 1540.79,707.743 1548.96,685.243 1574.5,669C 1582.23,665.362 1590.23,663.195 1598.5,662.5 Z M 1291.5,663.5 C 1304.52,662.07 1316.52,664.904 1327.5,672C 1338.28,677.783 1346.78,685.949 1353,696.5C 1361.07,716.111 1361.74,735.778 1355,755.5C 1343.2,780.275 1323.54,793.609 1296,795.5C 1257.17,791.333 1235.67,769.833 1231.5,731C 1235.17,693.841 1255.17,671.341 1291.5,663.5 Z"/></g>
<g><path style="opacity:0.956" fill="#000000" d="M 1062.5,833.5 C 1076.5,833.333 1090.5,833.5 1104.5,834C 1105,834.5 1105.5,835 1106,835.5C 1106.18,906.193 1107.02,976.859 1108.5,1047.5C 1108.22,1049.78 1106.89,1050.95 1104.5,1051C 1090.19,1052.38 1075.86,1052.71 1061.5,1052C 1051.47,1049.31 1045.64,1042.81 1044,1032.5C 1042.44,970.84 1041.77,909.174 1042,847.5C 1046.28,838.953 1053.11,834.286 1062.5,833.5 Z"/></g>
<g><path style="opacity:0.934" fill="#000000" d="M 1124.5,851.5 C 1126.2,851.34 1127.87,851.506 1129.5,852C 1130.98,854.309 1132.64,856.476 1134.5,858.5C 1139.69,862.858 1145.02,867.024 1150.5,871C 1156.36,877.199 1162.53,883.032 1169,888.5C 1169.91,923.534 1170.74,958.534 1171.5,993.5C 1170.96,994.748 1170.29,995.915 1169.5,997C 1159.17,1006 1148.83,1015 1138.5,1024C 1135.49,1027.02 1131.99,1029.19 1128,1030.5C 1126.89,1030.41 1125.89,1030.08 1125,1029.5C 1123.31,970.105 1123.15,910.771 1124.5,851.5 Z"/></g>
<g><path style="opacity:0.974" fill="#000000" d="M 348.5,936.5 C 374.515,938.336 399.848,943.502 424.5,952C 457.597,966.704 488.597,984.704 517.5,1006C 535.084,1018.92 549.917,1034.42 562,1052.5C 582.502,1086.34 594.835,1123 599,1162.5C 603.51,1203.85 603.51,1245.18 599,1286.5C 595.164,1302.34 589.164,1317.34 581,1331.5C 566.25,1355.34 551.25,1379 536,1402.5C 508.269,1449.22 499.436,1499.22 509.5,1552.5C 531.807,1550.67 554.141,1548.83 576.5,1547C 580.741,1534.52 587.741,1523.85 597.5,1515C 613.078,1500.78 631.078,1490.78 651.5,1485C 668.274,1481.69 683.608,1485.03 697.5,1495C 710.92,1505.08 721.42,1517.58 729,1532.5C 731.075,1533.13 733.241,1533.47 735.5,1533.5C 787.117,1529 838.784,1525.17 890.5,1522C 1010.9,1516.54 1131.24,1509.88 1251.5,1502C 1344.14,1498.76 1436.81,1497.76 1529.5,1499C 1533.15,1502.97 1535.48,1507.64 1536.5,1513C 1530.96,1537.56 1531.29,1562.06 1537.5,1586.5C 1535.06,1597.09 1528.39,1601.59 1517.5,1600C 1434.56,1605.29 1351.56,1609.29 1268.5,1612C 1093.16,1612.25 917.825,1613.58 742.5,1616C 732.954,1648.55 715.621,1676.21 690.5,1699C 680.911,1706.1 670.244,1711.1 658.5,1714C 626.809,1725.33 595.142,1725.33 563.5,1714C 514.736,1694.9 480.069,1661.24 459.5,1613C 438.833,1612.67 418.167,1612.33 397.5,1612C 370.094,1608.56 342.761,1604.56 315.5,1600C 308.22,1599.26 302.387,1596.09 298,1590.5C 296.138,1581.01 299.971,1575.18 309.5,1573C 354.355,1566.43 399.355,1561.1 444.5,1557C 436.001,1522.84 434.501,1488.34 440,1453.5C 446.311,1419.94 453.644,1386.61 462,1353.5C 473.738,1315.62 485.071,1277.62 496,1239.5C 503.538,1211.02 503.205,1182.69 495,1154.5C 494.439,1153.98 493.772,1153.64 493,1153.5C 459.464,1167.53 426.964,1183.03 395.5,1200C 393.604,1198.19 393.104,1196.03 394,1193.5C 398.487,1185.35 401.487,1176.68 403,1167.5C 407.156,1141.57 407.489,1115.57 404,1089.5C 403.738,1048.77 393.072,1011.11 372,976.5C 365.501,967.506 359.501,958.173 354,948.5C 352,946.5 350,944.5 348,942.5C 347.322,940.402 347.489,938.402 348.5,936.5 Z M 650.5,1514.5 C 662.296,1513.86 672.629,1517.36 681.5,1525C 685.535,1528.7 689.202,1532.7 692.5,1537C 662.189,1540.33 631.856,1543 601.5,1545C 614.169,1528.68 630.503,1518.51 650.5,1514.5 Z M 535.5,1614.5 C 547.996,1613.83 560.662,1613.5 573.5,1613.5C 612.833,1614.02 652.166,1614.52 691.5,1615C 694.553,1615.18 697.553,1615.68 700.5,1616.5C 690.885,1638.65 674.551,1653.49 651.5,1661C 636.018,1666.06 620.352,1666.73 604.5,1663C 576.201,1654.2 553.201,1638.03 535.5,1614.5 Z"/></g>
<g><path style="opacity:0.979" fill="#000000" d="M 986.5,1151.5 C 1018.45,1147.72 1047.79,1154.55 1074.5,1172C 1079.63,1176.13 1084.47,1180.63 1089,1185.5C 1090.11,1187.39 1090.95,1189.39 1091.5,1191.5C 1084.97,1206.89 1077.14,1221.56 1068,1235.5C 1066,1238.89 1063.17,1240.39 1059.5,1240C 1050.56,1230.72 1040.22,1223.39 1028.5,1218C 998.042,1208.25 975.542,1217.42 961,1245.5C 952.377,1268.62 954.043,1290.96 966,1312.5C 978.907,1330.59 996.407,1337.75 1018.5,1334C 1033.87,1330.32 1047.2,1322.99 1058.5,1312C 1060.17,1311.33 1061.83,1311.33 1063.5,1312C 1073.78,1324.72 1082.95,1338.22 1091,1352.5C 1091.67,1353.83 1091.67,1355.17 1091,1356.5C 1080.25,1372.64 1065.75,1384.14 1047.5,1391C 1024.19,1398.07 1000.52,1399.4 976.5,1395C 938.05,1384.55 911.55,1360.72 897,1323.5C 886.441,1289.27 887.108,1255.27 899,1221.5C 915.956,1182.69 945.123,1159.36 986.5,1151.5 Z"/></g>
<g><path style="opacity:0.979" fill="#000000" d="M 1391.5,1151.5 C 1423.45,1147.72 1452.79,1154.55 1479.5,1172C 1484.63,1176.13 1489.47,1180.63 1494,1185.5C 1495.11,1187.39 1495.95,1189.39 1496.5,1191.5C 1489.97,1206.89 1482.14,1221.56 1473,1235.5C 1471,1238.89 1468.17,1240.39 1464.5,1240C 1455.56,1230.72 1445.22,1223.39 1433.5,1218C 1403.04,1208.25 1380.54,1217.42 1366,1245.5C 1357.38,1268.62 1359.04,1290.96 1371,1312.5C 1383.91,1330.59 1401.41,1337.75 1423.5,1334C 1438.87,1330.32 1452.2,1322.99 1463.5,1312C 1465.17,1311.33 1466.83,1311.33 1468.5,1312C 1478.78,1324.72 1487.95,1338.22 1496,1352.5C 1496.67,1353.83 1496.67,1355.17 1496,1356.5C 1485.25,1372.64 1470.75,1384.14 1452.5,1391C 1429.19,1398.07 1405.52,1399.4 1381.5,1395C 1343.05,1384.55 1316.55,1360.72 1302,1323.5C 1291.44,1289.27 1292.11,1255.27 1304,1221.5C 1320.96,1182.69 1350.12,1159.36 1391.5,1151.5 Z"/></g>
<g><path style="opacity:0.981" fill="#000000" d="M 729.5,1152.5 C 748.845,1153.56 768.178,1153.72 787.5,1153C 788.667,1154.17 789.833,1155.33 791,1156.5C 821.998,1231.83 851.331,1307.83 879,1384.5C 879.896,1387.03 879.396,1389.19 877.5,1391C 873.284,1392.2 868.951,1392.87 864.5,1393C 847.142,1393.82 829.808,1393.49 812.5,1392C 809.427,1391.26 807.26,1389.43 806,1386.5C 804.475,1376.89 801.642,1367.72 797.5,1359C 785.667,1358.83 773.833,1358.67 762,1358.5C 748.78,1358.37 735.614,1358.87 722.5,1360C 718.672,1368.13 715.839,1376.63 714,1385.5C 713.214,1388.58 711.381,1390.75 708.5,1392C 691.857,1393.46 675.19,1393.79 658.5,1393C 654.015,1392.86 649.682,1392.02 645.5,1390.5C 644.353,1388.24 644.186,1385.9 645,1383.5C 672.3,1306.09 700.466,1229.09 729.5,1152.5 Z M 760.5,1237.5 C 768,1254.84 773.834,1272.84 778,1291.5C 778.818,1294.23 778.652,1296.89 777.5,1299.5C 765.91,1301.92 754.244,1302.08 742.5,1300C 741.422,1299.33 740.755,1298.33 740.5,1297C 745.88,1276.69 752.547,1256.86 760.5,1237.5 Z"/></g>
<g><path style="opacity:0.982" fill="#000000" d="M 1560.5,1154.5 C 1564.85,1154.33 1569.18,1154.5 1573.5,1155C 1603.72,1194.88 1633.55,1235.05 1663,1275.5C 1665.38,1278.88 1668.38,1281.55 1672,1283.5C 1673.08,1277.23 1673.58,1270.9 1673.5,1264.5C 1672.24,1234.16 1670.9,1203.83 1669.5,1173.5C 1669.53,1169.12 1669.86,1164.78 1670.5,1160.5C 1671.38,1159.75 1672.38,1159.25 1673.5,1159C 1689,1158.47 1704.5,1157.97 1720,1157.5C 1725.75,1157.51 1731.41,1157.84 1737,1158.5C 1735.13,1235.48 1734.13,1312.48 1734,1389.5C 1733.5,1390 1733,1390.5 1732.5,1391C 1713.43,1393.14 1694.43,1392.81 1675.5,1390C 1643.99,1349 1612.33,1308.17 1580.5,1267.5C 1580.17,1274.5 1579.83,1281.5 1579.5,1288.5C 1580.6,1322.16 1581.1,1355.83 1581,1389.5C 1580.1,1390.7 1578.93,1391.53 1577.5,1392C 1557.83,1392.67 1538.17,1392.67 1518.5,1392C 1517.06,1391.78 1515.73,1391.28 1514.5,1390.5C 1513.86,1385.05 1513.52,1379.55 1513.5,1374C 1515.06,1341.18 1516.06,1308.35 1516.5,1275.5C 1515.59,1237.49 1514.76,1199.49 1514,1161.5C 1515.83,1159.93 1517.99,1159.09 1520.5,1159C 1534.16,1159.12 1547.49,1157.62 1560.5,1154.5 Z"/></g>
<g><path style="opacity:0.98" fill="#000000" d="M 1108.5,1156.5 C 1160.17,1157.67 1211.83,1157.83 1263.5,1157C 1265.85,1157.35 1267.68,1158.51 1269,1160.5C 1272.04,1178.11 1273.54,1195.77 1273.5,1213.5C 1272.37,1214.26 1271.21,1214.93 1270,1215.5C 1240.31,1212.06 1210.48,1210.9 1180.5,1212C 1179.07,1212.47 1177.9,1213.3 1177,1214.5C 1174.9,1223.26 1175.23,1231.92 1178,1240.5C 1179.21,1242.05 1180.71,1243.22 1182.5,1244C 1208.36,1244.8 1234.19,1244.3 1260,1242.5C 1263.09,1242.52 1266.09,1242.86 1269,1243.5C 1267.08,1261.75 1265.74,1280.08 1265,1298.5C 1264.69,1299.77 1264.19,1300.93 1263.5,1302C 1235.21,1300.53 1206.87,1300.19 1178.5,1301C 1177.33,1301.5 1176.5,1302.33 1176,1303.5C 1175.34,1311.54 1175.67,1319.54 1177,1327.5C 1178.67,1331.17 1181.5,1333.33 1185.5,1334C 1193.74,1335.74 1202.07,1336.57 1210.5,1336.5C 1229.18,1335.77 1247.85,1334.77 1266.5,1333.5C 1270.5,1333.83 1274.5,1334.17 1278.5,1334.5C 1278.73,1353.05 1276.57,1371.38 1272,1389.5C 1271.22,1391.29 1270.05,1392.79 1268.5,1394C 1216.53,1392.79 1164.53,1392.12 1112.5,1392C 1110.32,1391.84 1108.49,1391 1107,1389.5C 1108.18,1349.84 1109.35,1310.18 1110.5,1270.5C 1110.22,1233.95 1108.89,1197.45 1106.5,1161C 1106.52,1159.17 1107.19,1157.67 1108.5,1156.5 Z"/></g>
<g><path style="opacity:0.96" fill="#000000" d="M 1782.5,1466.5 C 1792.51,1466.33 1802.51,1466.5 1812.5,1467C 1818.28,1467.86 1823.94,1469.19 1829.5,1471C 1849.05,1479.24 1867.05,1489.91 1883.5,1503C 1895.02,1509.84 1907.52,1513.34 1921,1513.5C 1932.59,1512.42 1944.09,1510.75 1955.5,1508.5C 1958.97,1509.14 1960.14,1511.14 1959,1514.5C 1938.23,1532.94 1917.73,1551.77 1897.5,1571C 1874.13,1591.86 1847.13,1606.19 1816.5,1614C 1782.5,1621.73 1751.5,1615.39 1723.5,1595C 1720.27,1592.11 1717.43,1588.94 1715,1585.5C 1714.07,1582.15 1714.9,1579.32 1717.5,1577C 1721.04,1575.5 1724.71,1575.16 1728.5,1576C 1756.07,1585.08 1784.07,1586.75 1812.5,1581C 1780.37,1580.38 1750.03,1572.72 1721.5,1558C 1716.22,1555.11 1711.39,1551.61 1707,1547.5C 1702.48,1541.95 1700.82,1535.62 1702,1528.5C 1706.6,1514.79 1714.1,1502.96 1724.5,1493C 1734.67,1486.42 1745,1480.08 1755.5,1474C 1764.32,1470.38 1773.32,1467.88 1782.5,1466.5 Z"/></g>
<g><path style="opacity:0.955" fill="#000000" d="M 1563.5,1500.5 C 1571.17,1500.33 1578.84,1500.5 1586.5,1501C 1588.96,1502.46 1591.13,1504.29 1593,1506.5C 1592.68,1511.16 1592.01,1515.82 1591,1520.5C 1590.37,1542.59 1592.54,1564.42 1597.5,1586C 1597.85,1590.7 1595.85,1593.7 1591.5,1595C 1582.5,1596.24 1573.83,1595.07 1565.5,1591.5C 1558.87,1578.94 1554.87,1565.61 1553.5,1551.5C 1554.38,1535.24 1556.88,1519.24 1561,1503.5C 1561.7,1502.31 1562.53,1501.31 1563.5,1500.5 Z"/></g>
<g><path style="opacity:0.95" fill="#000000" d="M 1634.5,1500.5 C 1651.86,1500.53 1668.86,1503.03 1685.5,1508C 1690.19,1509.52 1692.86,1512.69 1693.5,1517.5C 1690.8,1526.33 1689.97,1535.33 1691,1544.5C 1692.72,1552.33 1695.22,1559.83 1698.5,1567C 1698.26,1570.49 1696.92,1573.49 1694.5,1576C 1683.75,1582.7 1672.08,1587.03 1659.5,1589C 1648.31,1591.79 1636.98,1592.79 1625.5,1592C 1622.83,1588.66 1621.33,1584.83 1621,1580.5C 1620.13,1557.98 1618.96,1535.48 1617.5,1513C 1618.55,1502.51 1624.22,1498.34 1634.5,1500.5 Z"/></g>
</svg>
