<?xml version="1.0" encoding="UTF-8" standalone="no"?>
<svg
   id="Calque_1"
   data-name="Calque 1"
   viewBox="0 0 720.00001 719.99999"
   version="1.1"
   width="720"
   height="720"
   xmlns="http://www.w3.org/2000/svg"
   xmlns:svg="http://www.w3.org/2000/svg">
  <defs
     id="defs1">
    <style
       id="style1">
      .cls-1 {
        fill: #fff;
      }

      .cls-2 {
        fill: #040303;
      }

      .cls-3 {
        fill: #fe6e03;
      }

      .cls-4 {
        fill: #070707;
      }

      .cls-5 {
        fill: #c4c4c4;
      }

      .cls-6 {
        fill: #fefdfe;
      }

      .cls-7 {
        fill: #fdfdfd;
      }

      .cls-8 {
        fill: #3a02fe;
      }

      .cls-9 {
        fill: #fb0100;
      }

      .cls-10 {
        fill: #fc0001;
      }

      .cls-11 {
        fill: #f9c484;
      }

      .cls-12 {
        fill: #fbfbfb;
      }

      .cls-13 {
        fill: #fafafa;
      }

      .cls-14 {
        fill: #00045f;
      }

      .cls-15 {
        fill: #8f3401;
      }

      .cls-16 {
        fill: #16ac18;
      }

      .cls-17 {
        fill: #a4a4a4;
      }

      .cls-18 {
        fill: maroon;
      }

      .cls-19 {
        fill: #fb4bf3;
      }

      .cls-20 {
        fill: #030025;
      }

      .cls-21 {
        fill: #822f00;
      }

      .cls-22 {
        fill: #8a3300;
      }

      .cls-23 {
        fill: #c02ff8;
      }

      .cls-24 {
        fill: #890000;
      }

      .cls-25 {
        fill: #382016;
      }

      .cls-26 {
        fill: #696969;
      }

      .cls-27 {
        fill: #060607;
      }

      .cls-28 {
        fill: #020202;
      }

      .cls-29 {
        fill: #ff6900;
      }
    </style>
  </defs>
  <g
     id="g126"
     transform="translate(-5.300056,-153.2431)">
    <path
       class="cls-2"
       d="m 490.05,332.06 c 1.42,0.36 1.07,1.41 1.09,2.46 0.25,9.36 -2.34,18.08 -6,26.52 a 77.84,77.84 0 0 1 -5,9.55 19.85,19.85 0 0 1 -5.19,5.33 16.91,16.91 0 0 1 0.1,1.74 c -0.05,1.43 -0.78,2 -2.22,2.42 -8.21,2.28 -15.74,5.81 -21.51,12.38 a 3.51,3.51 0 0 0 -0.75,4.37 c 1.12,2.44 0.62,3.43 -1.67,5.15 a 6.8,6.8 0 0 0 -2.09,7.08 4,4 0 0 1 -0.25,4.09 c -1.33,1.87 -2.76,3.68 -4.32,5.75 l -2.07,-0.87 c -5.4,19.6 -10.74,39 -16.1,58.44 a 16.21,16.21 0 0 0 1.45,1.19 c 5,3.24 6.49,8.12 5.85,13.65 -1.09,9.46 -6.31,16.29 -14.3,21.14 a 17.21,17.21 0 0 1 -3.24,1.08 c -3.72,13.4 -7.51,27 -11.49,41.36 a 15.08,15.08 0 0 1 1.87,1.17 22.28,22.28 0 0 1 5.63,7.25 c 0.33,0.64 0.56,1.46 1.09,1.83 1.35,0.94 1.29,2.32 1.46,3.66 l 0.08,-0.07 L 404,570 c 0.67,3.66 1.49,7 1.85,10.28 1,9.19 -1.05,17.55 -7.27,24.65 a 3.07,3.07 0 0 0 -0.31,0.53 c -0.67,0.45 -1.36,0.86 -2,1.36 a 20.35,20.35 0 0 1 -8,3.85 c -7.24,1.67 -13.67,-0.38 -19.41,-4.66 -2.69,-2 -4.93,-4.6 -7.37,-6.93 a 42.89,42.89 0 0 1 -8,-28.74 l -1.65,-0.38 c -5.79,-1.3 -11.64,-2.4 -16.93,-5.34 a 71.38,71.38 0 0 0 -7.44,-3.68 c -4.94,-2 -9.94,-4.06 -15.45,-3.16 a 46.08,46.08 0 0 1 -14.68,0.52 c -0.14,0 -0.31,0.19 -0.06,0 -0.73,3.22 -1,6.26 -2.14,8.91 -1.63,3.72 -3.93,7.14 -5.95,10.7 v -0.06 l -0.53,0.64 c -0.55,0.45 -1.15,0.85 -1.65,1.35 -2.32,2.27 -4.81,4.17 -8.21,3.71 -4.72,7.7 -9.3,8.5 -15.88,5.84 -6.08,-2.46 -11.73,-5.92 -15.91,-11.27 a 10.73,10.73 0 0 0 -1.6,-1.38 27.72,27.72 0 0 0 -8.8,-8.48 73.55,73.55 0 0 0 -8.3,-4 c -5.16,-2.25 -9,-5.68 -9.09,-11.64 a 35.55,35.55 0 0 0 -1.28,-8.12 25.43,25.43 0 0 1 10.15,-27.12 l 2.06,-1.42 c 0,-3.34 -0.16,-6.43 0.06,-9.48 A 3.62,3.62 0 0 0 228.5,503 c -4.32,-3.31 -8.64,-6.62 -12.76,-10.17 a 89.5,89.5 0 0 1 -17.13,-18.89 24.54,24.54 0 0 1 -4.11,-10.2 c -0.56,-4.36 1.15,-7.84 5.1,-9.56 a 19.73,19.73 0 0 1 5.93,-1.44 41.82,41.82 0 0 1 14.63,1.57 c 4,1.07 8,2.34 12.21,3.58 a 12.71,12.71 0 0 0 -0.09,-1.6 79.85,79.85 0 0 1 0.81,-33 c 6.61,-28.33 22.24,-50 48.07,-63.86 a 64.68,64.68 0 0 1 44.17,-6.73 4.6,4.6 0 0 0 2.39,0 c 6.81,-2.66 13.74,-2.11 20.64,-0.73 14.49,2.9 27.67,9.06 40,17 5.25,3.4 10.11,7.38 15.21,11 7.3,5.2 11.57,12.58 15.07,20.55 a 6.59,6.59 0 0 1 0.23,0.9 c 1.62,6.49 -1.22,11.39 -7.7,13.19 a 29.34,29.34 0 0 1 -11,0.8 c -2.61,-0.28 -5.21,-0.67 -8.05,-1 3.34,19.37 2.56,38.25 -3.09,56.84 l 25,2 c 0.13,-0.46 0.27,-0.94 0.39,-1.42 q 4.59,-19.32 9.19,-38.65 c 0.55,-2.3 1.12,-4.59 1.66,-6.88 a 47.15,47.15 0 0 1 1.66,-6.87 c 0.94,-2.35 0,-4.49 -0.05,-6.72 a 15.71,15.71 0 0 0 -0.67,-3.83 c -0.58,-2 -0.27,-3.43 1.27,-4.68 2.88,-2.34 3.36,-3.86 2.31,-7.33 -0.95,-3.13 -0.68,-3.9 2.06,-6 a 2.74,2.74 0 0 0 0.4,-0.57 c -0.06,-2.38 0.27,-4.92 -1.15,-7.12 -3,-4.72 -6.68,-8.86 -11.77,-11.49 -1.18,-0.61 -2.51,-0.91 -3.68,-1.52 a 3.28,3.28 0 0 1 -0.59,-5.76 c 1,-0.83 2.12,-1.53 3.18,-2.29 l 1.12,-0.06 3.1,-0.52 2,-0.21 6.52,0.21 1.52,0.38 4.77,0.6 1.78,0.16 c 2.47,0.14 4.71,1.72 7.29,1.2 l 1.3,0.68 6.7,1.73 1.36,0.71 c 2.83,1 5.66,2 8.51,3 1.21,0.4 2.5,0.58 3.75,0.86 l 0.45,0.51 4.46,2.89 c 2.67,-1.19 3.3,-1.69 4.92,-4.27 a 81.5,81.5 0 0 0 10.28,-24.6 20,20 0 0 0 0.27,-2.35 c -2.2,3 -4.13,6 -6.42,8.69 a 88.56,88.56 0 0 1 -7.18,7.19 57.76,57.76 0 0 1 -5,4 c -0.72,0.54 -1.58,1.08 -2.66,-0.29 1.88,-2.15 3.88,-4.28 5.7,-6.55 1.82,-2.27 3.77,-4.87 5.47,-7.44 1.7,-2.57 3,-5.11 4.56,-7.74 l -2.71,-3.46 c -1.23,0.38 -2.27,0.79 -3.36,1 a 3.8,3.8 0 0 1 -4.6,-4 12.52,12.52 0 0 1 1,-3.17 c 0.34,-0.92 0.74,-1.81 1.13,-2.73 -2.09,-1.08 -3.71,-0.11 -5.37,0.22 -3.56,0.72 -5.56,-0.77 -5.82,-4.36 0,-0.61 0,-1.24 -0.08,-1.85 a 3,3 0 0 0 -3,-2.9 18.2,18.2 0 0 0 -2.75,0.16 26.71,26.71 0 0 1 -4,0.27 c -3.89,-0.27 -5.44,-2.79 -4,-6.38 0.54,-1.32 1.31,-2.55 1.93,-3.85 0.47,-1 0.87,-2 1.3,-3 -1.47,-1.54 -2.85,-2.51 -4.75,-1.4 -6.91,4 -13.82,8.09 -20,13.21 -6.7,5.52 -10.95,12.43 -12,21.14 -0.76,6.27 -0.82,12.49 1.75,18.45 l -0.75,0.8 c -0.68,-1.35 -1.7,-2.64 -2,-4.07 a 52.92,52.92 0 0 1 -1.14,-9.45 c -0.08,-10.2 3,-19.2 10.78,-26.2 0.83,-0.75 1.75,-1.4 2.84,-2.27 -2.67,-1.87 -4.8,-3.44 -7,-4.89 a 196.58,196.58 0 0 0 -34.3,-18 201,201 0 0 0 -51.7,-13.27 192.9,192.9 0 0 0 -49.78,0.56 197.87,197.87 0 0 0 -129.33,75.11 c -2.57,3.32 -4.93,6.82 -7.21,10.34 -3.79,5.85 -7.9,11.56 -11,17.74 -4,7.94 -7.48,16.21 -10.81,24.49 -5.51,13.69 -8.76,28 -10.81,42.6 a 187.28,187.28 0 0 0 0.3,53.13 171.14,171.14 0 0 0 6.57,29.13 c 5.3,16.08 10.75,32 19.66,46.68 33.19,54.62 90.5,90.17 154.08,94.85 a 194.7,194.7 0 0 0 109.54,-23.71 c 6.74,-3.67 13,-8.18 19.52,-12.3 2.88,-2.11 5.86,-4.11 8.63,-6.36 3.25,-2.64 6.32,-5.49 9.46,-8.26 0.88,-0.7 1.81,-1.34 2.63,-2.1 a 197.23,197.23 0 0 0 54.57,-87.67 248.49,248.49 0 0 0 7.6,-34.89 34.81,34.81 0 0 0 0.23,-3.69 q 0.9,-18.17 1.82,-36.32 c 0.13,-2.53 0.39,-2.75 3,-3.45 0.39,-0.11 0.77,-0.27 1.15,-0.41 3,-1.17 3.61,-1 5.72,1.66 a 20.13,20.13 0 0 0 2.38,2.19 4.12,4.12 0 0 0 1.6,-3.81 c 0,-0.82 -0.21,-1.63 -0.23,-2.45 -0.1,-4.23 1,-5.44 5,-6.33 a 3.72,3.72 0 0 1 4.43,1.87 c 0.53,0.88 0.92,1.84 1.45,2.72 a 21.2,21.2 0 0 0 1.9,2.77 c 1.38,1.61 2.85,3.13 4.53,5 0.69,-0.32 1.79,-0.8 2.87,-1.33 a 4.61,4.61 0 0 0 2.86,-4 9.85,9.85 0 0 1 2.31,-5.92 5,5 0 0 0 0.75,-4.7 c -0.47,-1.89 -1.14,-3.72 -1.77,-5.57 -1.72,-5 -3,-10.11 -1,-15.34 a 9.92,9.92 0 0 1 2.21,-3.59 5,5 0 0 1 6.51,-0.49 10.13,10.13 0 0 1 4.93,8.75 c 0.06,6 0.13,11.92 -0.08,17.88 -0.12,3.37 -0.81,6.73 -1.23,10.09 -0.12,1 -0.18,1.93 -0.26,2.89 l 0.6,0.14 c 0.34,-0.69 0.71,-1.36 1,-2.06 0.64,-1.51 1.14,-3.1 1.89,-4.55 1.76,-3.4 4.83,-4.8 7.53,-3.59 a 7.2,7.2 0 0 1 4,8.95 c -0.68,1.82 -1.59,3.56 -2.41,5.33 -1,2.28 -1.14,2.83 -0.85,5.79 0.49,0 1,-0.08 1.47,-0.1 2.61,-0.13 4.18,1.08 4.27,3.68 0.15,4.21 0.06,8.42 0.06,12.63 0,0.4 0,1 -0.26,1.16 -1.79,1.47 -1.41,3.52 -1.52,5.42 a 237,237 0 0 1 -9.56,52.94 271.41,271.41 0 0 1 -69.47,117.24 413.67,413.67 0 0 0 -37,42.47 c -4.29,5.64 -8.41,11.4 -12.58,17.13 a 64.3,64.3 0 0 0 -8.83,18.22 c -2,6 -1,12 0.88,17.87 a 68.32,68.32 0 0 1 2.15,9.26 c 0.48,2.87 -1.06,5.19 -2.88,7.2 -1.82,2.01 -4.58,1.87 -7.07,0.23 -4.13,-2.72 -5.51,-6.16 -4.7,-11.12 a 25.5,25.5 0 0 0 0.4,-6.4 c -0.43,-4.53 -4.15,-6.23 -8,-3.75 -1.63,1.06 -3.11,2.35 -4.65,3.55 -4.4,3.47 -8.3,3.58 -13.14,-1 a 18.15,18.15 0 0 0 -6.49,-4 c -5,-1.83 -9.8,-0.91 -14.35,1.18 a 11.25,11.25 0 0 0 -6.41,7.87 c -1.69,7.43 -1.1,14.41 3.91,20.68 a 45.12,45.12 0 0 1 5.87,9.36 c 3.16,7 3.87,14.09 -1.14,20.7 -1.74,2.29 -3.67,4.45 -6.82,4.86 a 9,9 0 0 1 -8.62,-3.75 c -3.63,-4.63 -6.1,-9.76 -5.58,-15.88 0.31,-3.58 0.71,-7.16 0.93,-10.75 0.2,-3.18 0.23,-6.36 0.28,-9.54 a 15.64,15.64 0 0 0 -0.3,-2.44 c -1.38,-9.85 -9.62,-11.88 -16.63,-10.54 a 21.25,21.25 0 0 0 -4.08,1.36 8.38,8.38 0 0 0 -4.63,4.68 22.64,22.64 0 0 1 -3.11,5.26 c -1.95,2.42 -4.4,2.38 -6.61,0.16 -0.58,-0.58 -1,-1.3 -1.59,-1.88 a 2.78,2.78 0 0 0 -3.39,-0.48 2.56,2.56 0 0 0 -1.73,2.91 45.31,45.31 0 0 0 1.17,5.41 c 1.09,3.9 0,7.37 -2.2,10.47 a 6,6 0 0 1 -9.17,0.84 c -2.8,-2.59 -4.25,-5.74 -3.15,-9.69 1,-3.46 1.82,-6.94 2.71,-10.42 a 11.17,11.17 0 0 0 0.29,-1.51 c 0.52,-4.56 -0.53,-5.76 -4.77,-7.56 -8.09,-3.43 -16.22,-2.83 -24.49,-1.07 -4.66,1 -11.32,7.18 -11.61,13.35 -0.34,7.35 -0.34,14.54 1.94,21.63 a 36.21,36.21 0 0 1 1.43,7.25 18.17,18.17 0 0 1 -4.35,13.71 6.26,6.26 0 0 1 -6.16,2.05 c -5.4,-0.87 -9.68,-4 -9.83,-10.71 -0.11,-4.94 1.3,-9.53 2.79,-14.12 1.07,-3.32 2.32,-6.59 3.29,-9.93 A 38.73,38.73 0 0 0 258.77,767 c -1,-5.55 -3.38,-10.51 -8.48,-13.74 a 20.66,20.66 0 0 0 -8.4,-2.78 3.52,3.52 0 0 0 -4,3.37 12.5,12.5 0 0 0 0.56,5.13 66.53,66.53 0 0 0 3.84,8.37 c 2,3.78 0.5,10.4 -3,12.7 a 7.5,7.5 0 0 1 -9.44,-1.79 11.55,11.55 0 0 1 -2.46,-8.08 36,36 0 0 1 0.79,-5.79 16.26,16.26 0 0 0 -0.5,-9.69 39.85,39.85 0 0 0 -1.44,-4.06 7.32,7.32 0 0 0 -6.72,-4.6 c -1.44,0 -2.88,0 -4.32,0 -8.59,-0.17 -15,-3.72 -19.4,-11.39 a 58.22,58.22 0 0 0 -7.88,-10.21 c -4.63,-5.07 -9.46,-10 -14.4,-14.75 a 53.34,53.34 0 0 0 -8.19,-6.47 Q 78.33,647.66 51.66,547.89 a 257,257 0 0 1 -8.44,-68.31 269.57,269.57 0 0 1 16,-90.26 272.41,272.41 0 0 1 67.72,-105 c 36.57,-35.37 79.65,-59 129.24,-70.59 a 261,261 0 0 1 85.72,-5.62 c 44.94,4.47 86.08,19.44 123.17,45.26 a 32.34,32.34 0 0 1 12.22,16.53 42.71,42.71 0 0 1 1.09,6.15 7.87,7.87 0 0 0 0.57,-5.45 c -0.29,-1.6 -1.52,-3.08 -0.65,-5.59 3.74,6.7 2.52,13.68 4,20.34 3.63,-4.71 2.13,-10 1.93,-15.21 a 2.84,2.84 0 0 1 2.75,2.21 c 0.59,2.28 0.42,5 1.65,6.8 a 34.45,34.45 0 0 1 3.62,5.83 c 4.4,10.29 4.59,21 2.87,31.77 -0.54,3.38 -2.27,6.57 -3.48,9.83 -0.53,1.44 -1.14,2.85 -1.71,4.28 -0.32,0.46 -0.93,0.91 0.12,1.2 z m -10.29,18.94 -0.29,0.4 0.23,-0.46 0.74,-0.49 1.77,-1.94 a 34,34 0 0 0 7,-15.6 q -4,7.72 -8.08,15.46 L 480,350 c -0.08,0.34 -0.16,0.65 -0.24,1 z m -80.22,193 v -0.06 c -0.36,1.19 -0.72,2.38 -1.09,3.57 -1.81,2.35 0.29,4.9 -0.82,7.94 1.16,-0.62 2,-0.78 2.2,-1.24 a 32.75,32.75 0 0 0 2.15,-5.34 c 2.39,-8.54 4.69,-17.1 7,-25.65 1,-3.6 1.93,-7.21 2.94,-11 l -3.19,-0.92 c -1.63,-1 -1.57,0.36 -1.8,1.29 -1.63,6.54 -3.29,13.08 -4.86,19.64 -0.74,3.07 -1.31,6.18 -2,9.28 v 0 c -0.07,0.82 -0.32,1.66 -0.53,2.49 z m 39.84,-128.87 1.71,1.11 c 0.73,-2.64 0.73,-2.64 -1.4,-3.43 l -5.07,-2 -4.62,-0.6 c -0.14,1.13 -0.23,1.95 -0.34,2.82 h 4.75 z m -2.22,-5 a 52.7,52.7 0 0 0 5.31,2.28 2.87,2.87 0 0 0 2.4,-0.58 c 0.85,-0.79 0.24,-1.73 -0.55,-2.31 -2,-1.43 -3.95,-2.88 -6.51,-3.06 l -1.77,-0.67 a 24.56,24.56 0 0 0 -3.77,-1.11 6,6 0 0 0 -3.27,0.32 3.43,3.43 0 0 0 -1.57,2.3 c -0.15,1.14 0.81,1.74 2,1.8 1.92,0.1 3.84,0.24 5.76,0.36 z m 7.9,-9.13 c 0,-0.46 0.07,-0.93 0.11,-1.39 0.39,0.1 0.78,0.18 1.16,0.31 1.07,0.39 2.16,0.76 2.94,-0.47 0.66,-1.06 0.17,-2.33 -1.21,-3.27 -0.74,-0.51 -1.52,-1 -2.28,-1.46 0,-0.39 0,-0.78 0,-1.17 1.77,0.1 2.39,-1.42 3.28,-2.45 5.87,-6.76 13.53,-10.7 21.83,-14.18 a 17,17 0 0 0 -2.11,-1.5 63,63 0 0 0 -6.34,-3.11 c -3.41,-1.34 -6.92,-2.44 -10.38,-3.65 a 14.43,14.43 0 0 0 -1.42,-0.56 94.25,94.25 0 0 0 -20.59,-3.54 56.25,56.25 0 0 0 -10.1,0.69 c -1.29,0.16 -2.86,0.38 -3.68,2 a 17.75,17.75 0 0 0 2.12,0.72 16,16 0 0 1 10.81,8 c 0.78,1.33 1.45,2.73 2.33,4 a 17.42,17.42 0 0 1 3.17,10.42 c 0,0.36 0,0.72 0,1.08 -0.78,0.23 -1.57,0.42 -2.34,0.7 a 2.24,2.24 0 0 0 -1.57,2.36 c 0,1.43 0.78,2 2.06,2.14 0,0.43 0.09,0.86 0.14,1.3 l -1.23,5.48 7.29,1.39 4.79,2 c 0.46,-2.2 0.84,-4.01 1.22,-5.84 z M 286,516.19 c -9.17,-0.94 -18.26,-0.06 -27.45,1.24 2.7,2.15 4.38,6.09 9,4.5 a 8.12,8.12 0 0 1 2.75,-0.09 c 5.31,0.11 10.62,0.24 15.92,0.36 l 11.47,0.43 c 1.32,0.11 2.65,0.24 4,0.32 5.12,0.29 10.26,0.33 15.35,0.9 6.61,0.74 13.2,1.73 19.74,2.91 7.75,1.4 15.52,2.83 23.15,4.76 8,2 15.93,4.67 23.89,7 0.82,0.24 1.66,0.39 2.52,0.59 0.59,-4.24 0.63,-4.35 -2.75,-5.59 -3.66,-1.34 -7.36,-2.57 -11.11,-3.62 -9.66,-2.71 -19.29,-5.54 -29.26,-7 -9.41,-1.42 -18.76,-3.26 -28.18,-4.61 -5.46,-0.78 -11,-1 -16.51,-1.42 z m 132.06,-39.42 c 3.64,0 3.61,0 4.52,-3.35 q 3.21,-11.81 6.47,-23.59 c 2.7,-9.83 5.43,-19.66 8.09,-29.5 0.95,-3.52 0.82,-3.64 -2.68,-4.58 a 4.63,4.63 0 0 0 -0.92,-0.08 c -2.86,-1 -3.18,-0.87 -3.74,1.49 q -6.87,29 -13.75,58.06 c -0.15,0.64 -0.18,1.3 -0.32,2.3 1.01,-0.34 1.66,-0.52 2.32,-0.75 z m -15.39,102.17 c -0.29,-2.11 -0.47,-4.24 -0.9,-6.32 a 2.29,2.29 0 0 0 -2.59,-2.09 c -2.22,0.25 -4.43,0.54 -6.65,0.78 a 99.32,99.32 0 0 1 -10,1 c -4.78,0 -9.57,-0.32 -14.35,-0.57 -2.43,-0.12 -4.86,-0.36 -7.29,-0.56 -1.58,-0.13 -3.16,-0.28 -5,-0.45 a 32.18,32.18 0 0 0 1.14,11.51 36.8,36.8 0 0 0 10.69,19.48 c 1.31,1.29 2.7,2.86 4.87,2.89 0.4,0.53 0.68,1.27 1.21,1.55 8.55,4.54 18,3.14 24.11,-4.56 a 25.35,25.35 0 0 0 5.35,-14.53 c 0.16,-2.71 0.74,-5.51 -0.59,-8.13 z m -178.94,-31.7 c -0.2,0.47 -0.41,0.93 -0.61,1.4 -2.23,5.15 -1,9.19 3.94,11.84 a 84.57,84.57 0 0 0 8.4,3.45 15,15 0 0 0 1.2,0.94 35.52,35.52 0 0 1 10,9 c 4.31,6 10.2,10 16.76,13.17 5.08,2.44 8.91,1.74 12,-2.42 2.53,-3.42 2.89,-8.35 -0.75,-11 -2.23,-1.63 -4.3,-3.47 -6.53,-5.1 -6.18,-4.52 -10.06,-10.7 -12.92,-17.64 a 14.63,14.63 0 0 0 -4.24,-6.29 l -3.13,-3.59 0.76,-0.81 a 14.51,14.51 0 0 1 2,1.3 25.43,25.43 0 0 1 6.91,10 c 3.4,8.93 10.46,14.67 18.07,19.83 1.38,1.19 2.95,2.31 3.35,4.21 0.37,1.75 0.46,3.56 0.73,5.86 1.41,-0.59 2.67,-0.8 3.51,-1.52 A 31.81,31.81 0 0 0 294,561.67 c 0.65,-3.08 -0.08,-3.87 -3.18,-4.79 a 85.68,85.68 0 0 1 -9.26,-3.18 c -4.3,-1.83 -7.68,-5 -11,-8.23 a 37.16,37.16 0 0 0 -3.57,-2.75 8,8 0 0 0 -0.76,-1.34 c -1.14,-1.36 -1.47,-2.58 0.07,-4 a 2.66,2.66 0 0 0 0.45,-2.23 30.22,30.22 0 0 0 -4.28,-9.76 c -8.49,-12.16 -27.58,-13.3 -37.11,-2.59 -5.92,6.66 -6.94,14.1 -5.15,22.35 0.19,0.86 0.47,1.86 1.71,1.87 z m 190.32,-144 a 3.74,3.74 0 0 0 -0.27,-4.09 79.8,79.8 0 0 0 -6.51,-9.27 c -7,-7.89 -15.43,-14.1 -24.45,-19.5 -2.71,-1.62 -5.63,-2.9 -8.45,-4.33 -2.35,-1.23 -4.65,-2.59 -7.07,-3.68 -8.92,-4 -18.08,-7.26 -27.93,-8 a 52.92,52.92 0 0 0 -5.34,0.1 12.14,12.14 0 0 0 3.22,2.15 c 3.52,2.08 7.14,4 10.48,6.39 5.26,3.69 9.16,8.76 13.11,13.75 a 12.82,12.82 0 0 0 0.77,1.92 60.53,60.53 0 0 1 7.77,19.22 c 1,5 1.45,10.07 2.3,15.09 0.28,1.63 -0.85,3.76 1,4.81 a 26.89,26.89 0 0 0 5.21,1.68 l 11.11,5.33 c -0.68,-7.07 -1.51,-13.78 -4,-20.14 a 22.38,22.38 0 0 0 -2.64,-4.46 3,3 0 0 1 -0.38,-3.32 c 1.9,-0.69 3.06,0.26 4.11,1.48 l 2.28,4.91 c 1,2.09 1.41,4.82 3,6.08 1.59,1.26 4.43,1.14 6.72,1.63 0.2,0 0.39,0.14 0.59,0.16 4,0.35 7.95,0.72 11.83,-0.5 a 6.22,6.22 0 0 0 4.77,-5.38 c 0.14,-1.09 -0.05,-1.81 -1.23,-2.02 z m -53,164.08 c 7.36,1.63 14.84,1.62 22.29,1.19 5.6,-0.32 11.16,-1.22 16.74,-1.86 a 16.34,16.34 0 0 0 7.2,-1.33 c -1.16,-3.5 -3.48,-5.89 -6.13,-8.09 a 16.13,16.13 0 0 1 -2.42,0.37 c -2.48,0 -5.73,-4.29 -4.56,-6.39 1.17,-2.1 0.2,-3.49 -1.06,-4.57 a 23.35,23.35 0 0 0 -5.89,-3.82 c -13.59,-5.73 -27.85,-9.14 -42.3,-11.78 -7.66,-1.4 -15.39,-2.49 -23.1,-3.59 A 215,215 0 0 0 295.5,525 q -13.53,-0.26 -27.08,-0.46 c -0.87,0 -1.75,0.14 -3.05,0.26 0.9,1.54 1.56,2.67 2.23,3.8 0.82,3.56 1.61,7.13 2.48,10.68 a 3.72,3.72 0 0 0 0.89,1.55 c 5.59,6.06 12.06,10.7 20.31,12.4 1.18,0.24 2.39,0.32 3.59,0.47 a 14.38,14.38 0 0 0 2.59,0.75 55.6,55.6 0 0 0 13.45,-0.41 22.92,22.92 0 0 1 8.82,0.28 59.91,59.91 0 0 1 13.19,4.91 c 8.84,4.77 18.35,6.84 28.14,8.1 z M 386.34,462 l 1.45,-3.94 c -1,-0.88 -1.76,-1.45 -2.44,-2.07 a 43.55,43.55 0 0 0 -15,-8.8 c -3.52,-1.26 -3.82,-1.12 -5.2,2.3 -6.27,15.5 -15.56,28.81 -28.55,39.45 a 75.87,75.87 0 0 1 -17.64,11.13 c -6.44,2.81 -13,5.22 -20.16,5.9 -9.61,0.91 -19,0.75 -28.19,-2.57 -1.53,-0.56 -3.11,-1 -4.67,-1.48 a 4.59,4.59 0 0 0 -0.52,-0.33 c -16,-7.69 -26,-20.47 -31.1,-37.28 a 4.88,4.88 0 0 0 -3.65,-3.67 c -5,-1.38 -10,-2.92 -15.12,-4 a 27.28,27.28 0 0 0 -12.8,-0.12 c -4,1.06 -5.74,3.79 -4.82,7.83 a 20.38,20.38 0 0 0 1,2.57 80.14,80.14 0 0 0 4.17,7.76 78.76,78.76 0 0 0 13,14.17 c 2.48,2.23 5.27,4.11 7.92,6.15 a 34.82,34.82 0 0 0 2.69,2.47 c 2.44,1.84 4.94,3.61 7.42,5.39 1,0.73 2,1.43 1.84,2.91 l -3.16,1 v 7.47 c 2.09,0.48 3.64,-0.4 5.24,-1 4.52,-0.48 9.07,-0.7 13.36,1.11 a 11.5,11.5 0 0 0 7.09,0.56 47.08,47.08 0 0 1 8.86,-0.93 c 9.75,-0.1 19.5,-0.27 29.24,0 10.56,0.35 21,2.1 31.43,3.79 11.24,1.82 22.49,3.54 33.48,6.58 6.33,1.75 12.63,3.55 18.95,5.34 1.9,0.75 3.79,1.52 5.69,2.25 a 2.72,2.72 0 0 0 1.18,0.22 7.38,7.38 0 0 0 6.11,-5.33 13.64,13.64 0 0 0 -0.42,-9.6 c -1.28,-2.85 -3.08,-5 -6.45,-5.47 -1.21,-0.17 -1.3,-1.65 -0.19,-2.3 a 2.65,2.65 0 0 1 2,-0.34 c 1.76,0.74 3.43,1.7 5.13,2.6 0.69,0.36 1.42,1.17 2,1.08 3,-0.4 6,-1 9,-1.62 0.45,-0.09 0.77,-0.76 1,-1 l -7.8,-7.52 c -0.14,-0.38 -0.25,-0.78 -0.42,-1.15 -2.5,-5.18 -1.6,-10 1.73,-14.44 a 20.75,20.75 0 0 1 7.3,-6 c 1.73,-0.89 3.54,-1.62 5.34,-2.36 0.8,-0.33 1.55,-0.6 1.26,-1.85 a 10.86,10.86 0 0 0 -2,-0.56 c -6.73,-0.64 -13.47,-1.31 -20.21,-1.8 a 14.69,14.69 0 0 0 -4.43,0.77 3.26,3.26 0 0 1 -3.48,-1.27 c -0.87,-1.07 0.05,-1.83 0.58,-2.7 a 20.22,20.22 0 0 0 2.96,-9.3 z m -22.52,-21 a 29.82,29.82 0 0 0 1.6,-4.17 87.64,87.64 0 0 0 2.06,-29.32 c -1.46,-13.08 -6.07,-24.85 -14.75,-34.83 a 47.48,47.48 0 0 0 -22.83,-14.93 27.62,27.62 0 0 0 -3.09,-1.18 57.38,57.38 0 0 0 -29.69,0.35 c -5,1.34 -10,2.95 -14.41,5.8 -1.1,0.55 -2.23,1 -3.29,1.65 -19.2,11.29 -32.07,27.81 -39.66,48.55 a 79.88,79.88 0 0 0 -3.54,44.51 c 2.15,10.3 6.35,19.65 13.47,27.54 a 5.88,5.88 0 0 0 0.6,1 51.58,51.58 0 0 0 36.64,17.23 54.72,54.72 0 0 0 16.73,-1.81 74.83,74.83 0 0 0 15.6,-5.56 c 22,-11.43 36.34,-29.33 44.39,-52.54 a 9.45,9.45 0 0 0 0.17,-2.29 z m -266.7,97 a 9.08,9.08 0 0 0 1.4,-1.67 q 2.53,-5.94 4.93,-11.94 a 3.43,3.43 0 0 0 0.07,-2.08 c -1.51,-5.1 -3.09,-10.18 -4.73,-15.55 l -34.59,3.81 c 1.58,5.89 3.07,11.4 4.6,17.11 4.88,-0.46 9.57,-0.89 14.25,-1.37 0.93,-0.1 1.85,-0.39 2.35,0.67 q -2.54,8.1 -5,16.06 c 2.54,2.17 4.89,4.16 7.21,6.17 2.32,2.01 4.8,4 7.47,6.55 l -16.48,7.08 c 1.31,5.77 2.59,11.41 3.89,17.17 l 32.31,-13.74 c -1.4,-5.38 -2.8,-10.52 -4,-15.68 a 7.07,7.07 0 0 0 -3,-4.43 c -3.58,-2.56 -7,-5.32 -10.68,-8.16 z M 290,689.85 c -2.85,0.31 -5.73,0.47 -8.54,1 a 27.74,27.74 0 0 0 -13.33,5.95 c -6.28,5.35 -6.86,12.72 -1.52,19 a 24.9,24.9 0 0 0 8.85,6.52 43.1,43.1 0 0 0 30.6,2.3 23.74,23.74 0 0 0 11,-6.42 c 4.44,-4.7 5,-10.73 1.26,-16 a 22.8,22.8 0 0 0 -4.68,-4.83 C 306.76,692 298.66,690.16 290,689.85 Z M 175.16,653.38 c 2.94,2 5.44,3.61 7.79,5.39 a 18,18 0 0 1 3.73,3.6 c 1.94,2.7 1.13,5.42 -1.88,6.86 a 12.31,12.31 0 0 1 -7.22,0.93 c -1.14,-0.16 -2.34,-0.85 -3.5,-0.06 0.45,3.14 1.21,6.18 1.24,9.23 0.05,5.35 2.52,8.66 7.18,11 3.53,1.8 6.7,4.32 10.43,6.78 -1,-5.26 -1.93,-10 -2.9,-15.13 1.34,0.15 2.55,0.27 3.74,0.43 a 16,16 0 0 0 8.17,-1 c 4.33,-1.72 6.26,-5.45 5.05,-9.94 a 19.22,19.22 0 0 0 -7.65,-10.89 c -10.25,-7.2 -20.65,-14.19 -31,-21.27 l -3,-2 -20.52,28.29 14.52,9.75 z M 519.8,591 c 0,-2.07 0.1,-3.69 0,-5.3 -0.54,-7.35 -6.71,-11.56 -13.73,-9.39 a 14.63,14.63 0 0 0 -6.74,4.17 55.33,55.33 0 0 0 -3.92,5.42 q -9.84,14.18 -19.65,28.37 c -0.5,0.72 -0.95,1.48 -1.42,2.22 L 503.14,635.7 513,622.06 490.49,607 c 2.29,-3.5 4.39,-6.76 6.57,-10 a 7.34,7.34 0 0 1 1.81,-1.65 c 3.23,-2.35 6.42,-1.46 7.95,2.23 1.07,2.57 0.83,5.24 0.47,7.9 -0.1,0.76 -0.23,1.51 -0.36,2.37 1,-0.16 1.73,-0.25 2.43,-0.39 a 107.62,107.62 0 0 1 10.57,-2 c 4.19,-0.41 6.78,-2.39 8.7,-6.07 1.92,-3.68 4.34,-6.91 6.8,-10.74 z m -74.58,62.13 0.52,-0.72 a 22.17,22.17 0 0 1 2.85,1.29 c 7,4.32 13.92,8.69 20.87,13 0.84,0.53 1.71,1 2.51,1.49 l 13.79,-10.85 -30.13,-19.34 -27.05,19.52 12.26,33.74 14,-10.44 c -3.24,-9.36 -6.43,-18.52 -9.62,-27.69 z M 134.67,608.84 a 106.85,106.85 0 0 1 -8.4,12.79 c -3,4.14 -6,8.25 -9,12.39 l 10.52,13.38 21.16,-29.57 -19.39,-24.61 -35.23,10.42 10.47,13.77 c 9.91,-3.17 19.61,-6.32 29.87,-8.57 z M 526.51,499.66 c -4.31,18.24 -8.59,36.33 -12.91,54.59 l 7.9,1.42 c 1.58,-6.39 3.11,-12.61 4.69,-19 l 25,5.82 c 1.28,-5.6 2.55,-11.15 3.87,-16.94 l -24.78,-5.81 c 1.1,-6.07 2.19,-12.06 3.3,-18.16 z M 443.7,283.8 462.18,260 a 234.33,234.33 0 0 0 -24.74,-15.29 c -5.11,9.1 -10.06,17.91 -15,26.74 z m -66.92,-62.25 q -3.64,14.8 -7.3,29.68 l 22.65,7 c 3.66,-9.67 7.28,-19.21 10.89,-28.73 -4.6,-2.32 -21.34,-7.36 -26.24,-7.95 z m -38.63,23.82 4.16,-30 A 206.17,206.17 0 0 0 315,214.14 v 29.5 c 4.11,0.23 7.89,0.39 11.66,0.67 3.77,0.28 7.5,0.69 11.49,1.06 z m 91.28,243 a 32.48,32.48 0 0 0 -1.62,-5.53 c -1.16,-2.45 -3.14,-4 -6.15,-3.64 -1.72,0.23 -3.48,0.31 -5.18,0.67 -5.62,1.21 -10.77,3.37 -14.73,7.75 -4.85,5.36 -4.51,12 0.85,16.91 a 23.11,23.11 0 0 0 10.93,5.35 5.18,5.18 0 0 0 3.47,-0.6 c 7.47,-4.62 11.47,-11.44 12.43,-20.87 z M 251.7,222 c 2.48,9.3 4.8,18 7.15,26.86 l 22.4,-3.74 c -1.24,-9.37 -2.46,-18.66 -3.75,-28.39 z m -46.54,45.88 20.25,-9 c -3.36,-8.25 -6.63,-16.29 -10,-24.54 a 233.43,233.43 0 0 0 -22.9,10.9 z m 201.31,404.93 a 8.66,8.66 0 0 0 -1.63,0.09 c -4.81,1.45 -9.63,2.84 -14.39,4.44 a 5.15,5.15 0 0 0 -2.34,2.22 c -1.57,2.52 -3,5.16 -4.43,7.74 l -6,10.63 a 4.5,4.5 0 0 0 0.8,0.74 c 6.92,3.34 13.84,6.7 20.8,10 a 3.93,3.93 0 0 0 2.56,0 c 4.69,-1.49 9.34,-3.08 14,-4.65 0.6,-0.2 1.17,-0.5 2.13,-0.92 l -22.39,-9.8 c 3.65,-6.94 7.18,-13.56 10.89,-20.49 z M 311.21,248.1 a 189.13,189.13 0 0 0 -26,1.31 c 1.06,8.34 2.08,16.31 3.08,24.18 l 23.48,-1.33 c -0.18,-8.02 -0.37,-15.96 -0.56,-24.16 z m -153.38,51.5 17.61,-13.81 -14,-21.14 c -7,5.07 -13.54,10.3 -19.86,15.88 5.53,6.47 10.84,12.74 16.25,19.07 z M 82.07,423 c -7.14,-2.55 -21.92,-6.12 -23.93,-5.78 -1.83,7.9 -3.79,15.81 -4.65,24.05 L 77.66,445 c 1.49,-7.39 2.93,-14.59 4.41,-22 z m 25.63,31.9 -26.33,-3.63 a 191.57,191.57 0 0 0 -2,23.26 c 9.19,0.3 18.14,0.29 27,0 0.48,-6.59 0.88,-12.82 1.33,-19.63 z m 94.51,-180.07 c -6.33,3 -17.05,9.5 -19.76,12.06 l 13.68,21.17 18.87,-11.48 c -4.31,-7.31 -8.51,-14.45 -12.79,-21.75 z M 92.12,391.8 l 9.43,-20.61 -22.14,-11.06 -9.88,21.61 z m 16.18,-23.47 22.8,12 10.51,-17.33 -21.09,-14.81 a 192.74,192.74 0 0 0 -12.22,20.14 z m 65.64,-43.19 -16.84,-19.28 -16.94,16.87 20,16.33 z m -55.18,82.73 -23.76,-10 a 192.47,192.47 0 0 0 -6.86,21.54 L 113,426.5 c 1.93,-6.27 3.77,-12.22 5.76,-18.63 z m 245.09,-153 c -5.24,-1.88 -20.22,-4.53 -23.19,-4.09 -1.1,7.69 -2.21,15.43 -3.32,23.16 l 21.21,3.79 c 1.8,-7.73 3.53,-15.22 5.3,-22.88 z m -244,86.51 13.23,-16.9 -19.82,-15.28 -13.4,17.34 z m 264.95,-55.59 19.44,8.79 11.7,-20.78 -22,-9.89 c -3.17,7.52 -6.15,14.68 -9.14,21.88 z m -3.36,427.93 -11.59,-29.72 -15.38,4.68 10.88,31 c 5.36,-1.98 10.65,-3.92 16.09,-5.96 z m -140.35,-428.79 19,-6 -6.52,-23.52 c -4.13,0.25 -18.82,4.81 -21.38,6.6 2.98,7.58 5.92,15.2 8.9,22.92 z m -9.76,393.59 c -3.72,9.87 -7.34,19.47 -11,29.18 l 15.67,5.77 c 3.76,-10.1 7.39,-19.87 11.1,-29.85 z M 387.91,454.16 a 8.14,8.14 0 0 0 0.51,-1.6 c 0.42,-4.68 0.95,-9.35 1.16,-14 a 69.31,69.31 0 0 0 -0.41,-8.87 3,3 0 0 0 -1.06,-2 c -4.48,-3.07 -9,-6.06 -14.37,-7.45 a 6.44,6.44 0 0 0 -1.64,0 c -0.71,4.27 -1.31,8.3 -2.06,12.3 -0.75,4 -1.65,7.89 -2.47,11.78 3.68,1.39 7.23,2.44 10.51,4.05 3.28,1.61 6.42,3.72 9.83,5.79 z m 56.2,-163.6 -15,19.34 3.66,2.85 c 7.12,-5.18 14.87,-8.94 21.93,-14.37 z m -54.33,250.16 7.36,5.6 c 2.25,-10.19 4.78,-20.35 7,-30.94 l -7.48,1.29 c 1.94,8.05 1.29,15 -6.9,19 z m 30.61,128.88 c -0.38,-3.68 -0.74,-7.21 -1.15,-11.13 L 413.3,662 c 0.44,3.43 0.85,6.64 1.3,10.12 z m 67.7,-376 c 2.62,-2.95 2.94,-7.17 0.86,-11 -0.28,3.57 -0.57,7.27 -0.86,10.95 z m 0.65,47.87 h -0.13 l -0.09,0.74 h 0.17 c 0.02,-0.3 0.03,-0.55 0.05,-0.79 z"
       transform="translate(55.45)"
       id="path2" />
    <path
       class="cls-3"
       d="m 361.55,599.08 c 2.44,2.33 4.68,4.93 7.37,6.93 5.74,4.28 12.16,6.33 19.41,4.66 a 20.08,20.08 0 0 0 8,-3.85 c 0.63,-0.49 1.33,-0.91 2,-1.36 6,0 12.06,0.12 18.09,0.09 4,0 8,0 11.81,1.42 a 28.46,28.46 0 0 1 5.94,3.1 c 2.48,1.68 2.89,3.65 1.67,6.43 -0.45,1 -1.05,2 -1.61,3 2.39,2.78 5.79,3.77 8.87,5.29 -3.15,2.76 -6.22,5.62 -9.46,8.26 -2.77,2.25 -5.75,4.25 -8.63,6.36 a 3.81,3.81 0 0 0 -4.08,0.45 10.62,10.62 0 0 1 -7.37,1.53 c -4.08,-0.42 -8.2,-0.67 -12.23,-1.41 a 30,30 0 0 1 -7.17,-2.61 3.12,3.12 0 0 1 -2,-3.73 c 0.39,-1.68 1.72,-2.22 3.17,-2.51 1,-0.2 2.05,-0.17 3.06,-0.34 a 7.63,7.63 0 0 0 1.61,-0.74 c -9.29,-1.39 -18.2,-2.82 -27.14,-4 -2.67,-0.36 -4.82,-1.65 -7,-2.91 a 3.87,3.87 0 0 1 -1.79,-4.28 3.65,3.65 0 0 1 3.13,-3 l 3.56,-0.73 c -4.84,-1.82 -9.47,-3.65 -14.16,-5.28 -2.3,-0.8 -4.35,-1.76 -5.65,-4 -1.87,-3.15 -1.1,-6.22 2.77,-6.51 2.53,-0.12 5.18,-0.15 7.83,-0.26 z"
       transform="translate(55.45)"
       id="path3" />
    <path
       class="cls-4"
       d="m 447.35,568.47 c 4.90074,-1.95866 10.29722,-2.30886 15.41,-1 1.93,0.52 3.77,1.4 5.69,2.12 -3.55,6.7 -13.66,9.27 -28.37,7.46 l -7.6,9 c 0.80611,0.0425 1.61389,0.0425 2.42,0 6.39097,-1.00452 12.9118,0.69452 18,4.69 0.79,0.62 1.49,1.35 2.28,2.07 -2.35394,3.3105 -6.11999,5.33041 -10.18,5.46 -7,0.51 -12.32,-1.12 -18.79,-5.85 -2.51,2 -5,4.13 -7.62,6.07 -2.62,1.94 -4.62,4.36 -7.74,5.15 l -0.48,-0.68 7.54,-6.38 c -4.13,-2.58 -5.79,-6.48 -6.72,-10.76 -1.23001,-5.02405 -0.95881,-10.2986 0.78,-15.17 0.23,-0.62 0.34,-1.29 0.51,-1.94 l -0.08,0.08 c 0.35528,-0.26011 0.68964,-0.54766 1,-0.86 0.88,-1 1.62,-0.89 2.56,0 3.79903,3.70112 6.05688,8.70268 6.32,14 0.0946,2.96827 0.0245,5.9395 -0.21,8.9 v 1.89 c 4.26,-2.92 7.24,-6.67 10.62,-10 -5,-6.11 -6.38,-13.27 -6.58,-20.77 0.0229,-1.00984 0.14683,-2.01486 0.37,-3 0.35,-2 0.73,-4.14 2.84,-4.76 2.11,-0.62 3.84,1 5.15,2.65 2.33476,2.89386 3.70236,6.44753 3.91,10.16 0.2,2.74 0,5.51 0,8.42 1.72,-1 2.39,-3 3.56,-4.51 1.17,-1.51 2.25,-3.17 3.35,-4.73 -6.54,-7.4 -7.11,-15.89 -5,-24.89 0.25957,-0.99373 0.64963,-1.94871 1.16,-2.84 1.41,-2.61 2.68,-2.77 4.66,-0.49 0.85923,1.01766 1.56349,2.15661 2.09,3.38 2.04798,4.57555 3.15004,9.51783 3.24,14.53 0.50579,-0.54886 0.94855,-1.15262 1.32,-1.8 1.67,-4.08 3.33,-8.16 4.88,-12.28 0.22718,-0.85999 0.24433,-1.76199 0.05,-2.63 -1.32,-8.75 1.3,-16.2 7.37,-22.52 0.66802,-0.63574 1.39082,-1.2113 2.16,-1.72 0.33803,-0.14987 0.69449,-0.25412 1.06,-0.31 1.47129,2.33748 2.10588,5.10502 1.8,7.85 -0.47844,7.46149 -3.76568,14.46474 -9.2,19.6 -1.6402,1.63261 -2.74568,3.725 -3.17,6 6.39,-4.15 12.78,-5.27 19.67,-3.62 0.24,4 -1.56,6.76 -4.27,9 -3.95648,3.15252 -8.68225,5.19264 -13.69,5.91 -2.41,0.42 -4.89,0.45 -7.71,0.69 l -5,7.69 -0.4,0.72 z"
       transform="translate(55.45)"
       id="path4" />
    <path
       class="cls-4"
       d="m 526.57,445.91 c -2.36,-2.23 -3.11,-4.82 -3.76,-7.35 a 104.53,104.53 0 0 0 -8.24,-21.83 c -2.3,-4.46 -5,-8.74 -7.34,-13.16 a 12.44,12.44 0 0 1 -1,-9 7.71,7.71 0 0 1 4.74,-5.67 c 2.69,-1.13 4.86,-0.54 6.36,2 a 41.59,41.59 0 0 1 2.89,6.11 c 1,2.48 1.74,5 2.6,7.57 2.85,8.35 3.71,17 3.85,25.76 0.06,3.39 0.2,6.77 0.22,10.16 -0.02,1.68 -0.2,3.37 -0.32,5.41 z"
       transform="translate(55.45)"
       id="path5" />
    <path
       class="cls-4"
       d="m 566.36,435.73 c -1.54,-1.09 -2.31,-2.2 -2.31,-3.73 a 17,17 0 0 1 0.25,-4 13.86,13.86 0 0 0 -0.71,-8.46 c -2,-5.05 -4.47,-9.9 -6.43,-14.95 a 75.74,75.74 0 0 1 -3.24,-10.86 9.17,9.17 0 0 1 1.34,-7.67 c 2,-2.67 5.14,-3.38 8.52,-1.83 3.83,1.76 5.65,5.16 6.38,8.94 a 76.45,76.45 0 0 1 0.08,26.35 7,7 0 0 1 -0.89,2.61 c -2,3.19 -2.4,6.71 -2.53,10.34 a 26.93,26.93 0 0 1 -0.46,3.26 z"
       transform="translate(55.45)"
       id="path6" />
    <path
       class="cls-4"
       d="m 513.2,451.28 a 49.46,49.46 0 0 0 -9.2,-12.38 15.31,15.31 0 0 1 -4.28,-7.69 11.85,11.85 0 0 1 -0.34,-2.12 c -0.11,-3.84 3,-6 6.38,-4.21 a 10.43,10.43 0 0 1 4.12,3.92 33.36,33.36 0 0 1 3.05,8 c 0.87,3.47 1.27,7.06 1.91,10.59 a 3.41,3.41 0 0 1 -1.64,3.89 z"
       transform="translate(55.45)"
       id="path7" />
    <path
       class="cls-4"
       d="m 541.72,414.67 c -0.53,2.31 -0.94,4.74 -1.67,7.06 -0.49,1.55 -1.39,3.09 -3.4,3 -1.5,0 -2.77,-1.6 -3.26,-3.64 -0.33,-1.38 -0.78,-2.72 -1.2,-4.08 -0.91,-2.93 -1.3,-5.81 0.59,-8.54 0.94,-1.36 2.11,-2.24 3.86,-2 1.75,0.24 3.46,0.95 4,2.85 a 53.38,53.38 0 0 1 1.08,5.35 z"
       transform="translate(55.45)"
       id="path8" />
    <path
       class="cls-7"
       d="m 249.69,485 c -7.12,-7.9 -11.32,-17.24 -13.47,-27.54 a 79.88,79.88 0 0 1 3.54,-44.51 c 7.59,-20.74 20.46,-37.25 39.66,-48.55 1.06,-0.62 2.19,-1.1 3.29,-1.65 1.23,1.19 2.5,0.37 3.73,0 3.76,-1 4.72,-0.54 6,3 a 10.75,10.75 0 0 0 0.85,2 4.53,4.53 0 0 0 5.57,2.07 18.68,18.68 0 0 0 2.26,-1 7.78,7.78 0 0 1 5.64,-0.51 c 3.07,0.86 4.56,0.05 5.62,-3.07 a 2.65,2.65 0 0 1 2.92,-2.08 c 0.51,0 1,0 1.54,0 a 8.34,8.34 0 0 0 7,-2.43 3.17,3.17 0 0 1 3,-1.13 2.46,2.46 0 0 0 3.05,-1.89 47.53,47.53 0 0 1 22.83,14.93 c 8.68,10 13.28,21.75 14.75,34.83 a 87.14,87.14 0 0 1 -2.06,29.32 31.12,31.12 0 0 1 -1.6,4.17 c -0.08,0.07 -0.18,0.12 -0.22,0.21 a 98.48,98.48 0 0 1 -47,47.84 c -12.95,6.2 -26.49,9 -40.82,6.85 a 41.15,41.15 0 0 1 -15.87,-5.38 c -2.86,-1.78 -5.62,-3.71 -8.43,-5.58 -0.62,-0.36 -1.21,-0.9 -1.78,0.1 z m 0.24,-52.24 c -0.08,4.83 2.25,8.52 5.92,11.23 4.79,3.54 10.06,3.13 15.12,0.55 8.62,-4.39 14.12,-11.71 18.11,-20.25 a 48,48 0 0 0 4.27,-15.33 28.5,28.5 0 0 0 -2.45,-15.6 8.12,8.12 0 0 0 -1.57,-1.71 c -0.57,-1.2 -1.07,-2.44 -1.71,-3.6 -4.41,-8 -12.41,-10.44 -20.35,-5.92 a 26,26 0 0 0 -6.94,5.48 c -11.15,13.18 -15.54,28.08 -10.4,45.11 z m 53.2,6 a 7.53,7.53 0 0 0 -0.05,2.06 20.35,20.35 0 0 0 6.91,10.6 9.73,9.73 0 0 0 9.49,2.12 30.79,30.79 0 0 0 6.43,-2.76 c 6.56,-3.88 10.76,-9.92 14.38,-16.41 A 55.92,55.92 0 0 0 347,412.86 c 0.55,-5.14 0.09,-10.25 -2.61,-14.86 a 11.1,11.1 0 0 0 -2.05,-2.06 52.11,52.11 0 0 0 -3.21,-5.22 c -4.29,-5.51 -10.48,-7.2 -17,-4.73 a 25.62,25.62 0 0 0 -12.32,10.29 c -8.72,13.1 -11.52,27.21 -6.68,42.48 z m -28.05,23.87 c 0.66,2.27 1,4.56 1.95,6.5 1.93,3.75 6.2,3.83 8.3,0.16 a 12.35,12.35 0 0 0 0,-12.88 c -2,-3.4 -5.94,-3.49 -7.94,-0.12 -1.11,1.85 -1.53,4.13 -2.31,6.34 z"
       transform="translate(55.45)"
       id="path11" />
    <path
       class="cls-8"
       d="m 300.92,582 a 26,26 0 0 1 17.35,-2.27 13.26,13.26 0 0 1 1.77,0.5 c 5,1.8 7.24,5.86 5.91,11 a 16.28,16.28 0 0 1 -5.41,8.43 c -2.23,1.87 -5.1,2 -7.84,2.33 -3.66,0.43 -7.34,0.77 -11,1.25 a 27.41,27.41 0 0 0 -3.82,1.15 21.26,21.26 0 0 0 3,2.31 c 4.39,2.21 9.16,2.89 14,3.2 4.3,0.27 8.6,0.45 12.9,0.75 a 14.45,14.45 0 0 1 3.61,0.72 c 4.21,1.44 6.27,4.81 5.83,9.35 a 8.55,8.55 0 0 1 -7.8,7.81 64.42,64.42 0 0 1 -8.88,-0.32 c -1.63,-0.12 -3.24,-0.51 -4.85,-0.78 l -3.62,-10.94 -0.77,-0.05 a 32.22,32.22 0 0 0 -1.75,3.34 c -1.24,3.21 -2.38,6.47 -3.56,9.71 l -6.8,2.65 -9.35,0.18 -8.84,-1.07 c -4.47,-0.55 -8.75,0.34 -13,1.58 -3.73,1.08 -7.52,2 -11.29,2.88 a 8,8 0 0 1 -2.45,0.12 c -2.8,-0.18 -4.33,-1.64 -4.49,-4.46 -0.12,-2 0.05,-4.1 0.05,-6.15 0,-3.2 -0.47,-3.67 -3.53,-4.26 -6.5,-1.25 -12.6,0.32 -18.67,2.4 a 66.73,66.73 0 0 1 -9.71,2.8 15.11,15.11 0 0 1 -6.36,-0.49 c -4.9,-1.32 -6.2,-6 -2.82,-9.78 a 21.15,21.15 0 0 1 10.6,-6.51 39.71,39.71 0 0 0 7.53,-2.53 13.4,13.4 0 0 0 -2.88,-1.24 60.07,60.07 0 0 0 -8.21,-1.06 c -3.58,-0.13 -7.17,0.11 -10.76,0.21 a 92,92 0 0 1 -22.34,-1.66 c -3.76,-0.82 -7.21,-2.39 -9.26,-6 8.14,1 15.92,0.39 22.6,-5.31 2.09,2 4,3.94 6.15,5.69 2.15,1.75 3.83,4.16 7.13,4.28 l -5.16,-5 c 2,-2.8 3.77,-5.38 5.58,-8 2.08,0.1 4.18,0.6 6.45,-0.58 l -5.15,-3 a 29,29 0 0 0 0,-11 c 5.07,-0.59 9.94,0.71 14.85,1.59 3.41,0.61 6.83,1.24 10.23,1.9 3.21,0.62 6.26,-0.33 9.34,-0.93 a 9.69,9.69 0 0 1 1.6,1.38 c 4.18,5.35 9.82,8.81 15.91,11.27 6.57,2.66 11.15,1.86 15.88,-5.84 3.4,0.46 5.88,-1.44 8.21,-3.71 0.51,-0.5 1.1,-0.9 1.65,-1.35 l 0.53,-0.64 v 0.06 c 2.06,0.34 3.36,-1.2 4.9,-2 a 8.21,8.21 0 0 1 5.21,-1.4 c 3.33,0.46 4.37,3 2.35,5.72 a 7.85,7.85 0 0 1 -0.86,0.87 l -6.35,2.21 a 8.29,8.29 0 0 0 6.46,-1.31 z"
       transform="translate(55.45)"
       id="path12" />
    <path
       class="cls-9"
       d="m 380.39,529.7 c -6.32,-1.78 -12.63,-3.59 -18.95,-5.34 -11,-3 -22.25,-4.76 -33.48,-6.58 -10.43,-1.69 -20.86,-3.44 -31.43,-3.79 -9.74,-0.32 -19.49,-0.15 -29.24,0 a 47.08,47.08 0 0 0 -8.86,0.93 11.41,11.41 0 0 1 -7.09,-0.56 c -4.28,-1.8 -8.83,-1.58 -13.36,-1.11 -0.5,-2.54 0,-5.37 -2.08,-7.47 0.19,-1.48 -0.82,-2.18 -1.84,-2.91 -2.49,-1.78 -5,-3.55 -7.42,-5.39 A 34.82,34.82 0 0 1 224,495 c 0.62,-2.6 1.32,-5.13 3.18,-7.21 a 30.27,30.27 0 0 0 2.9,-3.94 c 1.89,-3 1.9,-4 -0.87,-6.32 a 14.67,14.67 0 0 1 -5.51,-9.55 4.36,4.36 0 0 0 -0.17,-0.59 c -1.39,-4.45 -4.78,-6.64 -9.36,-6 a 14.53,14.53 0 0 0 -3,0.75 c -4.11,1.55 -8.2,3.17 -12.29,4.76 a 21,21 0 0 1 -1,-2.57 c -0.92,-4 0.78,-6.77 4.82,-7.83 a 27.15,27.15 0 0 1 12.8,0.12 c 5.09,1.11 10.09,2.65 15.12,4 a 4.88,4.88 0 0 1 3.65,3.67 c 5.08,16.81 15.06,29.59 31.1,37.28 a 5.69,5.69 0 0 1 0.52,0.33 c -0.31,1.48 0.36,2.17 1.75,2.72 a 72.33,72.33 0 0 0 27.51,5.57 51.81,51.81 0 0 0 30.69,-10.19 c 1.25,-0.9 2.56,-1.7 3.8,-2.6 a 119.1,119.1 0 0 0 9.87,-7.29 c 4.42,-4 8.51,-8.28 12.69,-12.5 a 80.3,80.3 0 0 0 13.94,-19 c 1.19,-2.24 2.5,-4.42 3.91,-6.91 a 29.76,29.76 0 0 1 3.32,1.78 c 3.18,2.24 6.27,4.62 9.47,6.84 a 23.49,23.49 0 0 0 3.5,1.68 20.12,20.12 0 0 1 -3,9.23 c -0.54,0.88 -1.45,1.64 -0.58,2.7 a 3.24,3.24 0 0 0 3.51,1.31 15.34,15.34 0 0 1 4.43,-0.77 c 6.75,0.49 13.48,1.16 20.21,1.8 a 10.86,10.86 0 0 1 2,0.56 c 0.3,1.25 -0.46,1.52 -1.26,1.85 -1.8,0.74 -3.61,1.47 -5.34,2.36 a 20.77,20.77 0 0 0 -7.3,6 c -3.33,4.47 -4.23,9.25 -1.73,14.44 a 11.25,11.25 0 0 1 0.42,1.15 c -3.55,1.26 -7.19,2.31 -10.62,3.82 -4.06,1.79 -4.66,4.07 -3.13,8.13 1.66,4.39 1.21,8.53 -2.06,12.2 a 13.91,13.91 0 0 0 -1.5,2.92 z m -31.2,-22.39 c 0.3,1.74 0.22,3.46 0.9,4.8 1.72,3.4 7.41,4.81 10.77,3 2.28,-1.19 3.26,-3.26 4.32,-5.4 1.37,-2.78 3.3,-3.39 6.07,-2.13 0.37,0.17 0.72,0.39 1.1,0.56 2.57,1.16 4.51,0.94 6.42,-1.12 2.31,-2.48 4.28,-5.18 4.94,-8.69 0.73,-3.87 -0.27,-6.28 -3.79,-8.06 -1.28,-0.65 -2.61,-1.21 -3.88,-1.87 -2.1,-1.08 -2.57,-2.16 -2.22,-4.49 a 26.65,26.65 0 0 0 0.46,-4.86 7.06,7.06 0 0 0 -6.53,-6.62 c -5.24,-0.13 -11.59,2.59 -12.52,9.8 -0.07,0.51 -0.07,1 -0.12,1.54 -0.27,3 -1.64,5 -4.75,5.55 -2.43,0.46 -4.19,2 -5.8,3.82 -2.53,2.79 -2.92,6 -1.93,9.48 0.92,3.22 3.45,4.34 6.53,4.6 0.07,0.07 0.14,0.18 0.03,0.09 z M 375,518 a 35.26,35.26 0 0 0 -1.47,-4.24 3.19,3.19 0 0 0 -3.63,-1.66 c -1.31,0.43 -1.73,1.52 -1.47,3.52 0.09,0.68 -0.18,1.42 0,2.08 a 12.17,12.17 0 0 0 1.25,3.92 3.33,3.33 0 0 0 2.65,1 2.84,2.84 0 0 0 2.52,-2.37 c 0.09,-0.5 0.07,-1.02 0.15,-2.25 z"
       transform="translate(55.45)"
       id="path13" />
    <path
       class="cls-10"
       d="m 267.61,528.58 -2.23,-3.8 c 1.3,-0.12 2.18,-0.27 3.05,-0.26 q 13.54,0.21 27.08,0.46 a 215,215 0 0 1 26.33,2.48 c 7.71,1.1 15.44,2.19 23.1,3.59 14.45,2.64 28.71,6.05 42.3,11.78 a 23.08,23.08 0 0 1 5.89,3.82 c 1.26,1.08 2.24,2.44 1.06,4.57 -1.18,2.13 2.08,6.4 4.56,6.39 a 16.13,16.13 0 0 0 2.42,-0.37 c 2.64,2.2 5,4.59 6.13,8.09 a 16.21,16.21 0 0 1 -7.2,1.34 c -0.38,-2.72 -1.92,-4.87 -3.38,-7.08 a 9,9 0 0 0 -6.14,-4.25 c -3.15,-0.47 -5.15,-2.22 -6.89,-4.6 -2.94,-4 -7,-4.28 -10.64,-2.66 a 23.55,23.55 0 0 0 -8.78,6.56 13.28,13.28 0 0 0 -3,10.29 13.22,13.22 0 0 1 -0.17,2.41 c -9.79,-1.26 -19.3,-3.3 -28.14,-8.11 a 59.72,59.72 0 0 0 -13.19,-4.91 22.92,22.92 0 0 0 -8.82,-0.28 55.6,55.6 0 0 1 -13.45,0.41 14.38,14.38 0 0 1 -2.59,-0.75 2.07,2.07 0 0 0 -1.55,-2 20.19,20.19 0 0 1 -2.55,-1 c -8.71,-4.65 -16,-10.83 -20.7,-19.68 -0.6,-1.09 -0.92,-2.42 -2.5,-2.44 z"
       transform="translate(55.45)"
       id="path14" />
    <path
       class="cls-11"
       d="m 422.48,361.47 -3.1,0.52 -1.83,-3.8 c -2.57,-6 -2.51,-12.18 -1.75,-18.45 1.05,-8.71 5.3,-15.62 12,-21.14 6.21,-5.11 13.11,-9.17 20,-13.21 1.9,-1.11 3.28,-0.14 4.75,1.4 -0.42,1 -0.82,2 -1.3,3 -0.62,1.3 -1.39,2.52 -1.93,3.85 -1.47,3.59 0.08,6.11 4,6.38 a 29.79,29.79 0 0 0 4,-0.27 17,17 0 0 1 2.75,-0.16 3,3 0 0 1 3,2.9 c 0.08,0.61 0,1.23 0.08,1.85 0.26,3.59 2.26,5.07 5.82,4.36 1.66,-0.33 3.28,-1.3 5.37,-0.22 -0.38,0.92 -0.79,1.81 -1.13,2.73 a 12.65,12.65 0 0 0 -1,3.17 3.81,3.81 0 0 0 4.6,4 c 1.09,-0.22 2.14,-0.63 3.36,-1 l 2.71,3.46 c -1.54,2.63 -2.93,5.26 -4.56,7.74 -1.63,2.48 -3.54,5 -5.47,7.44 -1.93,2.44 -3.82,4.41 -5.7,6.55 1.08,1.37 1.94,0.83 2.66,0.29 a 63.08,63.08 0 0 0 5,-4 88.56,88.56 0 0 0 7.18,-7.19 c 2.29,-2.68 4.22,-5.68 6.42,-8.69 a 20,20 0 0 1 -0.27,2.35 81.76,81.76 0 0 1 -10.28,24.6 c -1.62,2.58 -2.25,3.08 -4.92,4.27 l -4.46,-2.89 a 51.67,51.67 0 0 0 12.52,-12.94 9.45,9.45 0 0 0 1.24,-2.43 c 0.13,-0.39 -0.23,-0.94 -0.37,-1.42 -1.17,3.22 -3.33,5.55 -5.44,7.85 -2.69,2.92 -5.61,5.62 -8.43,8.41 -1.25,-0.28 -2.54,-0.47 -3.75,-0.86 -2.85,-0.93 -5.67,-2 -8.51,-3 a 9.78,9.78 0 0 1 0.45,-2.52 c 1.42,-3.06 3,-6.05 4.45,-9.09 a 23.89,23.89 0 0 0 0.87,-2.59 c -0.74,0.43 -1.11,0.51 -1.21,0.72 -2,4.25 -3.95,8.51 -5.92,12.77 l -6.7,-1.73 c -1.3,-7.2 -0.35,-13.8 5,-19.27 a 9.34,9.34 0 0 0 0.8,-1.34 c -2.56,0.46 -3.53,2.05 -4.37,3.6 a 24.61,24.61 0 0 0 -2.74,16.33 c -2.58,0.52 -4.82,-1.05 -7.29,-1.2 -0.66,-1.59 -1.65,-3.13 -1.93,-4.78 -1.35,-8 0.91,-15 6.17,-21 0.53,-0.62 1.1,-1.21 1.65,-1.82 l -0.47,-0.51 a 5.49,5.49 0 0 0 -1.38,0.8 25.67,25.67 0 0 0 -7.12,23.11 32.07,32.07 0 0 0 1.28,4.08 l -4.77,-0.6 a 62.9,62.9 0 0 1 -2.16,-6.7 33.94,33.94 0 0 1 -0.78,-7.31 26.88,26.88 0 0 1 1,-7 26.05,26.05 0 0 1 2.8,-6.45 33.31,33.31 0 0 1 4.6,-5.73 c 1.56,-1.6 3.42,-2.91 5.51,-4.65 -1.81,-0.32 -2.5,0.58 -3.27,1.14 -10,7.23 -14.16,19.28 -10.74,31.35 0.47,1.67 1,3.31 1.55,5 l -6.52,-0.21 a 21.66,21.66 0 0 1 -4.29,-15.66 c 1.6,-13.71 8.39,-24 20.85,-30.27 a 5.79,5.79 0 0 0 1.13,-1 l -0.32,-0.56 a 25.82,25.82 0 0 0 -2.65,1.09 37.8,37.8 0 0 0 -18.75,23 c -2.34,7.61 -2.46,15.16 1.89,22.27 0.22,0.25 0.09,0.81 0.12,1.28 z"
       transform="translate(55.45)"
       id="path15" />
    <path
       class="cls-12"
       d="m 97.12,538 c 3.68,2.82 7.1,5.58 10.68,8.13 a 7.1,7.1 0 0 1 3,4.43 c 1.26,5.17 2.65,10.3 4,15.68 L 82.5,580 c -1.31,-5.76 -2.59,-11.4 -3.89,-17.17 l 16.44,-7.08 c -2.67,-2.54 -5.12,-4.5 -7.47,-6.55 -2.35,-2.05 -4.67,-4 -7.21,-6.17 q 2.5,-8 5,-16.06 c -0.5,-1.05 -1.42,-0.76 -2.35,-0.67 -4.68,0.48 -9.36,0.91 -14.25,1.37 -1.54,-5.72 -3,-11.22 -4.6,-17.11 l 34.59,-3.79 c 1.65,5.37 3.23,10.45 4.73,15.55 a 3.36,3.36 0 0 1 -0.07,2.08 q -2.38,6 -4.93,11.94 A 8.3,8.3 0 0 1 97.12,538 Z"
       transform="translate(55.45)"
       id="path16" />
    <path
       class="cls-12"
       d="m 290,689.85 c 8.63,0.31 16.72,2.18 23.69,7.51 a 22.56,22.56 0 0 1 4.68,4.83 c 3.74,5.28 3.18,11.31 -1.26,16 a 23.79,23.79 0 0 1 -11,6.42 43.15,43.15 0 0 1 -30.6,-2.3 25,25 0 0 1 -8.85,-6.52 c -5.34,-6.29 -4.76,-13.66 1.52,-19 a 27.7,27.7 0 0 1 13.33,-5.95 c 2.8,-0.53 5.67,-0.68 8.49,-0.99 z m 2.61,25 a 11,11 0 0 0 6.61,-2.2 c 3,-2.24 3,-5.43 0.11,-7.74 -3.76,-3 -11.24,-3 -15,0 -2.77,2.23 -2.82,5.29 -0.08,7.55 2.19,1.77 4.75,2.35 8.39,2.37 z"
       transform="translate(55.45)"
       id="path17" />
    <path
       class="cls-13"
       d="m 175.16,653.38 -15.82,22 -14.52,-9.75 20.57,-28.26 3,2 c 10.34,7.07 20.73,14.07 31,21.27 a 19.22,19.22 0 0 1 7.61,10.87 c 1.21,4.49 -0.72,8.22 -5.05,9.94 a 16,16 0 0 1 -8.17,1 c -1.2,-0.16 -2.4,-0.28 -3.74,-0.43 1,5.09 1.89,9.87 2.9,15.13 -3.73,-2.46 -6.9,-5 -10.43,-6.78 -4.66,-2.38 -7.13,-5.7 -7.18,-11 0,-3.05 -0.8,-6.09 -1.24,-9.23 1.16,-0.79 2.35,-0.11 3.5,0.06 a 12.31,12.31 0 0 0 7.22,-0.93 c 3,-1.44 3.82,-4.16 1.88,-6.86 a 17.71,17.71 0 0 0 -3.73,-3.6 c -2.37,-1.81 -4.86,-3.42 -7.8,-5.43 z"
       transform="translate(55.45)"
       id="path18" />
    <path
       class="cls-13"
       d="m 519.8,591 15.62,-2.39 c -2.46,3.83 -4.92,7.14 -6.8,10.74 -1.88,3.6 -4.51,5.67 -8.7,6.07 a 107.06,107.06 0 0 0 -10.57,2 c -0.7,0.14 -1.42,0.23 -2.43,0.39 0.13,-0.86 0.26,-1.61 0.36,-2.37 0.36,-2.66 0.6,-5.33 -0.47,-7.9 -1.54,-3.69 -4.73,-4.59 -7.95,-2.23 a 7.34,7.34 0 0 0 -1.81,1.65 c -2.18,3.21 -4.28,6.47 -6.57,10 l 22.52,15.11 -9.84,13.64 -28.8,-19.21 c 0.47,-0.74 0.92,-1.49 1.42,-2.22 l 19.65,-28.37 a 55.79,55.79 0 0 1 3.92,-5.42 14.71,14.71 0 0 1 6.74,-4.17 c 7,-2.17 13.19,2 13.73,9.39 0.08,1.6 -0.02,3.22 -0.02,5.29 z"
       transform="translate(55.45)"
       id="path19" />
    <path
       class="cls-14"
       d="m 275.62,571.24 c -7.62,-5.16 -14.67,-10.9 -18.07,-19.83 a 25.43,25.43 0 0 0 -6.91,-10 14.51,14.51 0 0 0 -2,-1.3 c -0.22,-0.33 -0.36,-0.83 -0.66,-1 -3.36,-1.63 -6.93,-2.63 -10.61,-1.8 -6.22,1.39 -11.59,4.31 -15.37,9.68 -1.24,0 -1.52,-1 -1.71,-1.87 -1.79,-8.24 -0.77,-15.69 5.15,-22.35 9.52,-10.71 28.62,-9.57 37.11,2.59 a 29.8,29.8 0 0 1 4.28,9.76 2.66,2.66 0 0 1 -0.45,2.23 c -1.55,1.4 -1.21,2.62 -0.07,4 a 8.76,8.76 0 0 1 0.76,1.34 c 0.8,2 1.71,3.9 2.37,5.92 1.23,3.77 2.27,7.6 3.46,11.39 0.94,3 2,6 2.94,9 a 6.17,6.17 0 0 1 -0.22,2.24 z"
       transform="translate(55.45)"
       id="path20" />
    <path
       class="cls-13"
       d="m 445.22,653.13 c 3.19,9.17 6.39,18.33 9.66,27.71 l -14,10.44 -12.26,-33.74 27.01,-19.54 30.13,19.36 -13.76,10.87 c -0.8,-0.48 -1.67,-1 -2.51,-1.49 -7,-4.35 -13.9,-8.72 -20.87,-13 a 25.3,25.3 0 0 0 -2.85,-1.29 z"
       transform="translate(55.45)"
       id="path21" />
    <path
       class="cls-13"
       d="m 134.67,608.84 c -10.26,2.25 -20,5.4 -29.88,8.59 l -10.47,-13.77 35.22,-10.42 19.39,24.61 c -7,9.73 -14,19.53 -21.16,29.57 L 117.25,634 c 3,-4.14 6,-8.25 9,-12.39 a 108.8,108.8 0 0 0 8.42,-12.77 z"
       transform="translate(55.45)"
       id="path22" />
    <path
       class="cls-13"
       d="m 526.51,499.66 7.11,1.94 c -1.11,6.1 -2.2,12.09 -3.3,18.16 l 24.78,5.81 c -1.32,5.79 -2.59,11.34 -3.87,16.94 l -25.05,-5.82 c -1.57,6.37 -3.11,12.58 -4.69,19 l -7.9,-1.42 c 4.33,-18.27 8.61,-36.37 12.92,-54.61 z"
       transform="translate(55.45)"
       id="path23" />
    <path
       class="cls-9"
       d="m 360.84,376.75 c -3.95,-5 -7.85,-10.06 -13.11,-13.75 -3.34,-2.35 -7,-4.31 -10.48,-6.39 a 12.3,12.3 0 0 1 -3.22,-2.15 52.92,52.92 0 0 1 5.34,-0.1 c 9.85,0.76 19,4 27.93,8 2.42,1.09 4.71,2.44 7.07,3.68 l 2.19,5 c -0.39,0.44 -0.73,0.82 -1,1.21 a 62.68,62.68 0 0 0 -5.14,6.43 6.66,6.66 0 0 0 4.82,10.25 21.55,21.55 0 0 0 5.2,0 c 2,-0.18 4,-0.63 6.08,-0.84 2.64,-0.28 3.24,0.24 2.74,2.81 a 10.56,10.56 0 0 0 2.4,9.42 c -1,-0.33 -2.05,-0.64 -3.07,-1 -0.83,-0.28 -1.64,-0.61 -2.46,-0.92 -1,-1.23 -2.2,-2.18 -4.11,-1.48 a 3,3 0 0 0 0.38,3.32 22.38,22.38 0 0 1 2.64,4.46 c 2.52,6.36 3.35,13.07 4,20.14 l -11.12,-5.34 a 23.2,23.2 0 0 0 -0.32,-3.94 c -1.4,-5.44 -2.82,-10.88 -4.43,-16.26 a 69.82,69.82 0 0 0 -8.2,-18.14 c -1.07,-1.7 -2.74,-2.96 -4.13,-4.41 z"
       transform="translate(55.45)"
       id="path24" />
    <path
       class="cls-13"
       d="m 443.7,283.8 -21.29,-12.36 c 5,-8.84 9.91,-17.64 15,-26.74 a 230.7,230.7 0 0 1 24.77,15.3 z"
       transform="translate(55.45)"
       id="path25" />
    <path
       class="cls-13"
       d="m 376.78,221.55 c 4.89,0.59 21.63,5.63 26.24,7.91 -3.61,9.52 -7.22,19.06 -10.89,28.73 l -22.65,-7 q 3.68,-14.82 7.3,-29.64 z"
       transform="translate(55.45)"
       id="path26" />
    <path
       class="cls-13"
       d="m 338.15,245.37 c -4,-0.37 -7.74,-0.77 -11.51,-1.05 -3.77,-0.28 -7.55,-0.44 -11.66,-0.67 v -29.5 a 204.49,204.49 0 0 1 27.33,1.23 c -1.4,10.08 -2.77,19.97 -4.16,29.99 z"
       transform="translate(55.45)"
       id="path27" />
    <path
       class="cls-15"
       d="m 251,544.54 a 14.72,14.72 0 0 1 4.24,6.29 c 2.86,6.94 6.74,13.12 12.92,17.64 2.23,1.63 4.31,3.47 6.53,5.1 3.64,2.67 3.27,7.6 0.75,11 -3.07,4.16 -6.91,4.86 -12,2.42 -6.56,-3.15 -12.45,-7.18 -16.76,-13.17 a 35.39,35.39 0 0 0 -10,-9 13.4,13.4 0 0 1 -1.2,-0.94 c 0.71,-1.69 1.44,-3.37 2.12,-5.07 a 2.88,2.88 0 0 1 3,-1.74 c 1.34,0 1.56,1.1 1.76,2.13 a 9.54,9.54 0 0 0 0.2,1.21 4,4 0 0 0 3.45,2.64 3.49,3.49 0 0 0 3.46,-2.1 3.63,3.63 0 0 0 -0.74,-4.24 c -0.63,-0.64 -1.37,-1.17 -2.33,-2 a 19.71,19.71 0 0 1 1.75,-2.45 9.62,9.62 0 0 0 2.85,-7.72 z"
       transform="translate(55.45)"
       id="path28" />
    <path
       class="cls-16"
       d="m 391.6,400.27 a 10.52,10.52 0 0 1 -2.4,-9.42 c 0.5,-2.57 -0.1,-3.09 -2.74,-2.81 -2,0.21 -4,0.66 -6.08,0.84 a 21.55,21.55 0 0 1 -5.2,0 6.66,6.66 0 0 1 -4.82,-10.25 62.68,62.68 0 0 1 5.14,-6.43 c 0.32,-0.39 0.66,-0.76 1,-1.21 -0.74,-1.69 -1.47,-3.33 -2.19,-5 2.82,1.43 5.74,2.7 8.45,4.33 9,5.4 17.44,11.61 24.45,19.5 a 80.66,80.66 0 0 1 6.51,9.27 3.72,3.72 0 0 1 0.27,4.09 5.93,5.93 0 0 1 -5.54,0 c -1.77,-2.14 -3.94,-2.46 -6.56,-1.8 a 57.34,57.34 0 0 1 -6.55,0.92 l -3.06,-1.47 -0.79,-0.68 z"
       transform="translate(55.45)"
       id="path29" />
    <path
       class="cls-5"
       d="m 249.69,485 c 0.57,-1 1.16,-0.42 1.75,0 2.81,1.87 5.57,3.8 8.43,5.58 a 41.37,41.37 0 0 0 15.87,5.38 c 14.33,2.16 27.87,-0.65 40.82,-6.85 a 98.44,98.44 0 0 0 22.94,-15.25 97.45,97.45 0 0 0 24.09,-32.59 c 0,-0.09 0.15,-0.14 0.22,-0.21 a 8.85,8.85 0 0 1 -0.17,2.32 c -8.05,23.21 -22.43,41.12 -44.39,52.54 a 74.06,74.06 0 0 1 -15.6,5.56 54.65,54.65 0 0 1 -16.73,1.81 51.52,51.52 0 0 1 -36.64,-17.29 6,6 0 0 1 -0.59,-1 z"
       transform="translate(55.45)"
       id="path30" />
    <path
       class="cls-10"
       d="m 429.43,488.41 c -1,9.43 -5,16.25 -12.42,20.91 a 5.17,5.17 0 0 1 -3.47,0.6 23,23 0 0 1 -10.93,-5.35 c -5.36,-4.87 -5.7,-11.55 -0.85,-16.91 4,-4.38 9.11,-6.54 14.73,-7.75 1.69,-0.37 3.45,-0.44 5.18,-0.67 3,-0.41 5,1.19 6.15,3.64 a 32.36,32.36 0 0 1 1.61,5.53 z"
       transform="translate(55.45)"
       id="path31" />
    <path
       class="cls-13"
       d="m 251.7,222 25.81,-5.27 c 1.28,9.73 2.51,19 3.75,28.39 l -22.4,3.74 C 256.49,240 254.17,231.28 251.7,222 Z"
       transform="translate(55.45)"
       id="path32" />
    <path
       class="cls-13"
       d="m 205.16,267.86 -12.63,-22.63 a 235.74,235.74 0 0 1 22.9,-10.9 c 3.35,8.25 6.63,16.29 10,24.54 z"
       transform="translate(55.45)"
       id="path33" />
    <path
       class="cls-13"
       d="m 406.47,672.81 -10.92,20.46 22.39,9.8 c -1,0.42 -1.53,0.72 -2.13,0.92 -4.66,1.57 -9.32,3.16 -14,4.65 a 3.81,3.81 0 0 1 -2.56,0 c -7,-3.26 -13.88,-6.62 -20.8,-10 -0.26,-0.12 -0.44,-0.4 -0.8,-0.74 l 6,-10.63 c 1.47,-2.59 2.86,-5.22 4.43,-7.74 a 5.26,5.26 0 0 1 2.34,-2.22 c 4.76,-1.6 9.58,-3 14.39,-4.44 a 9.9,9.9 0 0 1 1.66,-0.06 z"
       transform="translate(55.45)"
       id="path34" />
    <path
       class="cls-13"
       d="m 311.21,248.1 c 0.2,8.19 0.39,16.14 0.58,24.16 l -23.48,1.33 c -1,-7.87 -2,-15.84 -3.08,-24.18 a 192.26,192.26 0 0 1 25.98,-1.31 z"
       transform="translate(55.45)"
       id="path35" />
    <path
       class="cls-13"
       d="m 157.83,299.6 -16.28,-19.07 c 6.32,-5.58 12.85,-10.81 19.86,-15.88 l 14,21.14 z"
       transform="translate(55.45)"
       id="path36" />
    <path
       class="cls-13"
       d="m 82.07,423 c -1.48,7.39 -2.92,14.59 -4.41,22 l -24.17,-3.73 c 0.87,-8.24 2.82,-16.15 4.65,-24.05 2.01,-0.32 16.79,3.25 23.93,5.78 z"
       transform="translate(55.45)"
       id="path37" />
    <path
       class="cls-13"
       d="m 107.7,454.9 c -0.44,6.81 -0.85,13 -1.29,19.67 -8.87,0.26 -17.82,0.27 -27,0 a 187.48,187.48 0 0 1 2,-23.26 z"
       transform="translate(55.45)"
       id="path38" />
    <path
       class="cls-8"
       d="m 361.06,567.33 a 12.27,12.27 0 0 0 0.17,-2.41 13.25,13.25 0 0 1 3,-10.29 23.55,23.55 0 0 1 8.78,-6.56 c 3.63,-1.62 7.71,-1.35 10.64,2.66 1.74,2.38 3.75,4.13 6.89,4.6 a 9,9 0 0 1 6.14,4.25 c 1.46,2.21 3,4.36 3.38,7.08 -5.58,0.64 -11.14,1.53 -16.74,1.86 -7.42,0.48 -14.9,0.48 -22.26,-1.19 z"
       transform="translate(55.45)"
       id="path39" />
    <path
       class="cls-16"
       d="m 198.87,466.9 c 4.1,-1.59 8.18,-3.2 12.29,-4.76 a 13.76,13.76 0 0 1 3,-0.75 c 4.58,-0.66 8,1.53 9.36,6 a 4.36,4.36 0 0 1 0.17,0.59 14.71,14.71 0 0 0 5.51,9.55 c 2.76,2.32 2.76,3.33 0.87,6.32 a 29.61,29.61 0 0 1 -2.9,3.94 c -1.86,2.08 -2.56,4.61 -3.18,7.21 -2.65,-2 -5.44,-3.92 -7.92,-6.15 a 79.5,79.5 0 0 1 -13,-14.17 81.25,81.25 0 0 1 -4.2,-7.78 z"
       transform="translate(55.45)"
       id="path40" />
    <path
       class="cls-13"
       d="m 202.21,274.83 c 4.29,7.3 8.48,14.43 12.77,21.75 l -18.86,11.48 c -4.53,-7 -9.11,-14.11 -13.68,-21.17 2.72,-2.55 13.43,-9.09 19.77,-12.06 z"
       transform="translate(55.45)"
       id="path41" />
    <path
       class="cls-13"
       d="m 92.12,391.8 -22.59,-10.05 9.88,-21.61 22.14,11.06 z"
       transform="translate(55.45)"
       id="path42" />
    <path
       class="cls-13"
       d="m 108.3,368.33 a 192.16,192.16 0 0 1 12.21,-20.16 L 141.6,363 131.09,380.38 c -7.52,-4 -15.02,-7.95 -22.79,-12.05 z"
       transform="translate(55.45)"
       id="path43" />
    <path
       class="cls-13"
       d="m 173.94,325.14 -13.81,13.93 -20,-16.33 16.94,-16.87 c 5.87,6.68 11.44,13.06 16.87,19.27 z"
       transform="translate(55.45)"
       id="path44" />
    <path
       class="cls-17"
       d="M 434.73,390.42 A 17.42,17.42 0 0 0 431.56,380 c -0.88,-1.26 -1.55,-2.66 -2.33,-4 a 16,16 0 0 0 -10.81,-8 22.22,22.22 0 0 1 -2.12,-0.72 c 0.82,-1.65 2.39,-1.88 3.68,-2 a 55.4,55.4 0 0 1 10.1,-0.69 94.25,94.25 0 0 1 20.59,3.54 14.43,14.43 0 0 1 1.42,0.56 9.7,9.7 0 0 0 0.59,2 c 1.81,3.29 1.41,6.41 -0.23,9.68 a 40.86,40.86 0 0 1 -6.25,8.71 35.65,35.65 0 0 0 -2.26,3.17 c -3.06,-0.6 -6.14,-1.25 -9.21,-1.83 z"
       transform="translate(55.45)"
       id="path45" />
    <path
       class="cls-18"
       d="m 386.34,462 a 23.49,23.49 0 0 1 -3.5,-1.68 c -3.2,-2.22 -6.29,-4.59 -9.47,-6.84 a 29.76,29.76 0 0 0 -3.32,-1.78 c -1.41,2.49 -2.72,4.67 -3.91,6.91 a 80.58,80.58 0 0 1 -13.94,19 c -4.18,4.22 -8.27,8.55 -12.69,12.5 a 114.73,114.73 0 0 1 -9.87,7.29 c -1.24,0.9 -2.55,1.7 -3.8,2.6 a 51.87,51.87 0 0 1 -30.66,10.16 72.33,72.33 0 0 1 -27.51,-5.57 c -1.39,-0.55 -2.05,-1.24 -1.75,-2.72 1.56,0.49 3.14,0.92 4.67,1.48 9.18,3.32 18.58,3.47 28.19,2.57 7.17,-0.68 13.71,-3.09 20.16,-5.9 a 75.87,75.87 0 0 0 17.64,-11.13 c 13,-10.64 22.28,-23.95 28.55,-39.45 1.38,-3.42 1.68,-3.56 5.2,-2.3 a 43.62,43.62 0 0 1 15,8.8 c 0.68,0.62 1.4,1.19 2.44,2.07 z"
       transform="translate(55.45)"
       id="path46" />
    <path
       class="cls-14"
       d="m 372.59,604.61 c -2.17,0 -3.55,-1.6 -4.86,-2.89 A 36.8,36.8 0 0 1 357,582.24 a 39.26,39.26 0 0 0 6.08,0.55 c 5.61,-0.33 11.16,0.61 16.81,0.23 7.13,-0.48 14.31,-0.09 21.39,-1.45 0.34,4.37 -2.38,8.51 -5.42,9.35 a 18,18 0 0 1 -5.39,0.42 c -4.67,-0.18 -8.08,1.68 -10.18,5.88 -0.32,0.64 -0.62,1.29 -0.88,1.95 a 7.14,7.14 0 0 1 -4.89,4.67 17.07,17.07 0 0 0 -1.93,0.77 z"
       transform="translate(55.45)"
       id="path47" />
    <path
       class="cls-13"
       d="M 118.76,407.87 113,426.49 88.1,419.4 A 194.56,194.56 0 0 1 95,397.86 Z"
       transform="translate(55.45)"
       id="path48" />
    <path
       class="cls-13"
       d="m 363.85,254.85 c -1.77,7.66 -3.5,15.11 -5.29,22.86 l -21.21,-3.79 c 1.11,-7.73 2.22,-15.47 3.32,-23.16 2.96,-0.44 17.95,2.24 23.18,4.09 z"
       transform="translate(55.45)"
       id="path49" />
    <path
       class="cls-13"
       d="m 119.87,341.36 -20,-14.84 13.4,-17.34 19.82,15.28 z"
       transform="translate(55.45)"
       id="path50" />
    <path
       class="cls-13"
       d="m 384.8,285.79 9.1,-21.89 22,9.89 -11.7,20.78 z"
       transform="translate(55.45)"
       id="path51" />
    <path
       class="cls-13"
       d="m 381.44,713.72 -16.09,6 -10.88,-31 15.38,-4.72 z"
       transform="translate(55.45)"
       id="path52" />
    <path
       class="cls-13"
       d="m 241.09,284.93 c -3,-7.72 -5.92,-15.34 -8.85,-22.95 2.56,-1.79 17.25,-6.35 21.38,-6.6 l 6.52,23.52 z"
       transform="translate(55.45)"
       id="path53" />
    <path
       class="cls-19"
       d="m 251,544.54 a 9.61,9.61 0 0 1 -2.9,7.79 19.71,19.71 0 0 0 -1.75,2.45 c 1,0.81 1.71,1.34 2.33,2 a 3.63,3.63 0 0 1 0.74,4.24 3.48,3.48 0 0 1 -3.46,2.1 4,4 0 0 1 -3.45,-2.64 9.54,9.54 0 0 1 -0.2,-1.21 c -0.2,-1 -0.42,-2.15 -1.76,-2.13 a 2.88,2.88 0 0 0 -3,1.74 c -0.68,1.7 -1.41,3.38 -2.12,5.07 a 83.6,83.6 0 0 1 -8.4,-3.45 c -4.95,-2.65 -6.18,-6.69 -3.94,-11.84 0.2,-0.47 0.41,-0.93 0.61,-1.4 6.68,-8.18 15,-10.35 24.12,-6.29 z"
       transform="translate(55.45)"
       id="path54" />
    <path
       class="cls-13"
       d="m 231.33,678.52 15.75,5.1 c -3.71,10 -7.34,19.75 -11.1,29.85 l -15.64,-5.77 z"
       transform="translate(55.45)"
       id="path55" />
    <path
       class="cls-20"
       d="m 401.32,581.56 c -7.08,1.36 -14.26,1 -21.39,1.45 -5.65,0.38 -11.2,-0.56 -16.81,-0.23 a 39.26,39.26 0 0 1 -6.08,-0.55 32.43,32.43 0 0 1 -1.14,-11.51 c 1.83,0.16 3.41,0.32 5,0.45 2.43,0.2 4.86,0.43 7.29,0.56 4.78,0.24 9.57,0.61 14.35,0.57 3.33,0 6.66,-0.62 10,-1 2.22,-0.24 4.44,-0.53 6.65,-0.78 a 2.28,2.28 0 0 1 2.59,2.09 c 0.43,2.08 0.61,4.21 0.9,6.32 z"
       transform="translate(55.45)"
       id="path56" />
    <path
       class="cls-21"
       d="m 387.91,454.16 c -3.41,-2.07 -6.49,-4.26 -9.83,-5.9 -3.34,-1.64 -6.84,-2.66 -10.51,-4.05 0.82,-3.89 1.73,-7.82 2.47,-11.78 0.74,-3.96 1.35,-8 2.06,-12.3 a 6.44,6.44 0 0 1 1.64,0 c 5.35,1.39 9.89,4.38 14.37,7.45 a 3,3 0 0 1 1.06,2 71.18,71.18 0 0 1 0.41,8.87 c -0.21,4.69 -0.74,9.36 -1.16,14 a 9.76,9.76 0 0 1 -0.51,1.71 z"
       transform="translate(55.45)"
       id="path57" />
    <path
       class="cls-22"
       d="m 298.48,516.85 c 5.51,0.45 11,0.64 16.51,1.42 9.42,1.35 18.77,3.19 28.18,4.61 10,1.5 19.6,4.33 29.26,7 3.75,1.05 7.45,2.28 11.11,3.62 3.38,1.24 3.34,1.35 2.75,5.59 -0.86,-0.2 -1.7,-0.34 -2.52,-0.59 -8,-2.36 -15.85,-5 -23.89,-7 -7.63,-1.93 -15.4,-3.37 -23.15,-4.76 -6.54,-1.18 -13.13,-2.17 -19.74,-2.91 -5.09,-0.57 -10.23,-0.61 -15.35,-0.9 -1.33,-0.08 -2.65,-0.21 -4,-0.32 0.3,-1.9 0.57,-3.83 0.84,-5.76 z"
       transform="translate(55.45)"
       id="path58" />
    <path
       class="cls-20"
       d="m 275.62,571.24 a 6,6 0 0 0 0.19,-2.19 c -0.91,-3 -2,-6 -2.94,-9 -1.19,-3.79 -2.23,-7.62 -3.46,-11.39 -0.66,-2 -1.57,-3.95 -2.37,-5.92 a 37.16,37.16 0 0 1 3.57,2.75 c 3.32,3.22 6.69,6.4 11,8.23 a 85.68,85.68 0 0 0 9.26,3.18 c 3.09,0.92 3.82,1.72 3.18,4.79 a 31.87,31.87 0 0 1 -10.82,18.11 c -0.84,0.72 -2.11,0.93 -3.51,1.52 -0.28,-2.3 -0.37,-4.11 -0.73,-5.86 -0.42,-1.91 -1.99,-3.03 -3.37,-4.22 z"
       transform="translate(55.45)"
       id="path59" />
    <path
       class="cls-8"
       d="m 329.9,357.74 a 2.46,2.46 0 0 1 -3,1.89 3.15,3.15 0 0 0 -3,1.13 8.31,8.31 0 0 1 -7,2.43 c -0.51,-0.05 -1,0 -1.54,0 a 2.65,2.65 0 0 0 -2.92,2.08 c -1.07,3.12 -2.55,3.93 -5.62,3.07 a 7.83,7.83 0 0 0 -5.64,0.51 18.68,18.68 0 0 1 -2.26,1 4.52,4.52 0 0 1 -5.57,-2.07 9.61,9.61 0 0 1 -0.85,-2 c -1.26,-3.58 -2.23,-4.06 -6,-3 -1.24,0.34 -2.5,1.15 -3.73,0 4.43,-2.86 9.37,-4.46 14.41,-5.8 a 57.38,57.38 0 0 1 29.69,-0.35 c 1,0.2 2,0.71 3.03,1.11 z"
       transform="translate(55.45)"
       id="path60" />
    <path
       class="cls-23"
       d="m 401.32,581.56 1.35,-2.62 c 1.33,2.62 0.75,5.42 0.59,8.13 a 25.35,25.35 0 0 1 -5.35,14.53 c -6.07,7.7 -15.55,9.1 -24.11,4.56 -0.53,-0.28 -0.81,-1 -1.21,-1.55 a 20.85,20.85 0 0 1 2,-0.78 7.14,7.14 0 0 0 4.89,-4.67 c 0.26,-0.66 0.56,-1.32 0.88,-1.95 2.1,-4.19 5.51,-6.06 10.18,-5.88 a 18,18 0 0 0 5.39,-0.42 c 3.01,-0.84 5.74,-4.98 5.39,-9.35 z"
       transform="translate(55.45)"
       id="path61" />
    <path
       class="cls-24"
       d="m 380.39,529.7 a 13,13 0 0 1 1.5,-2.89 c 3.27,-3.66 3.72,-7.81 2.06,-12.2 -1.53,-4.06 -0.93,-6.33 3.13,-8.13 3.43,-1.52 7.07,-2.57 10.62,-3.82 l 7.8,7.52 c -0.23,0.25 -0.56,0.92 -1,1 -3,0.63 -6,1.22 -9,1.62 -0.62,0.08 -1.35,-0.72 -2,-1.08 -1.7,-0.89 -3.37,-1.85 -5.13,-2.6 a 2.59,2.59 0 0 0 -2,0.34 c -1.12,0.65 -1,2.13 0.19,2.3 3.38,0.48 5.17,2.62 6.45,5.47 a 13.63,13.63 0 0 1 0.42,9.6 7.38,7.38 0 0 1 -6.11,5.33 2.72,2.72 0 0 1 -1.18,-0.22 c -1.96,-0.72 -3.85,-1.48 -5.75,-2.24 z"
       transform="translate(55.45)"
       id="path62" />
    <path
       class="cls-25"
       d="m 433.54,415.66 a 4.7,4.7 0 0 1 0.92,0.08 c 3.5,0.94 3.63,1.06 2.68,4.58 -2.66,9.84 -5.39,19.67 -8.09,29.5 q -3.24,11.79 -6.47,23.59 c -0.91,3.35 -0.89,3.36 -4.52,3.35 0.82,-3.47 1.58,-6.95 2.47,-10.4 2.57,-10 5.2,-19.95 7.78,-29.93 1.76,-6.91 3.48,-13.85 5.23,-20.77 z"
       transform="translate(55.45)"
       id="path63" />
    <path
       class="cls-13"
       d="m 444.11,290.56 10.64,7.82 c -7.06,5.43 -14.81,9.19 -21.93,14.37 l -3.66,-2.85 z"
       transform="translate(55.45)"
       id="path64" />
    <path
       class="cls-26"
       d="m 444,392.27 a 37.82,37.82 0 0 1 2.26,-3.17 40.86,40.86 0 0 0 6.25,-8.71 c 1.63,-3.27 2,-6.39 0.23,-9.68 a 9.53,9.53 0 0 1 -0.59,-2 c 3.47,1.2 7,2.31 10.38,3.65 a 65.25,65.25 0 0 1 6.34,3.11 17.82,17.82 0 0 1 2.11,1.5 c -8.3,3.48 -16,7.42 -21.83,14.18 -0.89,1 -1.51,2.54 -3.28,2.45 z"
       transform="translate(55.45)"
       id="path65" />
    <path
       class="cls-24"
       d="m 408.51,403.26 a 5.93,5.93 0 0 0 5.54,0 c 1.18,0.21 1.37,0.93 1.23,2 a 6.21,6.21 0 0 1 -4.77,5.38 c -3.88,1.22 -7.86,0.85 -11.83,0.5 -0.2,0 -0.39,-0.12 -0.59,-0.16 -2.29,-0.49 -5.07,-0.34 -6.72,-1.63 -1.65,-1.29 -2.05,-4 -3,-6.08 l -2.28,-4.91 c 0.82,0.31 1.63,0.64 2.46,0.92 1,0.35 2,0.66 3.07,1 h -0.06 l 0.79,0.68 3.06,1.47 c 4.23,2.2 8.59,2.14 13.1,0.83 z"
       transform="translate(55.45)"
       id="path66" />
    <path
       class="cls-21"
       d="m 433.54,415.66 c -1.75,6.93 -3.47,13.86 -5.25,20.77 -2.57,10 -5.21,19.95 -7.78,29.93 -0.89,3.45 -1.65,6.93 -2.47,10.4 l -2.32,0.74 a 22.79,22.79 0 0 1 0.32,-2.3 q 6.87,-29 13.75,-58.06 c 0.57,-2.35 0.89,-2.48 3.75,-1.48 z"
       transform="translate(55.45)"
       id="path68" />
    <path
       class="cls-22"
       d="m 286.2,522.21 -15.92,-0.36 a 8.12,8.12 0 0 0 -2.75,0.09 c -4.61,1.59 -6.28,-2.35 -9,-4.5 9.19,-1.3 18.28,-2.18 27.45,-1.24 z"
       transform="translate(55.45)"
       id="path69" />
    <path
       class="cls-18"
       d="m 360.84,376.75 c 1.39,1.44 3.06,2.71 4.13,4.36 a 70.3,70.3 0 0 1 8.2,18.14 c 1.6,5.38 3,10.82 4.43,16.26 a 23.36,23.36 0 0 1 0.32,3.94 26.89,26.89 0 0 1 -5.21,-1.68 c -1.88,-1 -0.75,-3.18 -1,-4.81 -0.86,-5 -1.32,-10.1 -2.3,-15.09 a 60.63,60.63 0 0 0 -7.77,-19.22 11.44,11.44 0 0 1 -0.8,-1.9 z"
       transform="translate(55.45)"
       id="path70" />
    <path
       class="cls-25"
       d="m 408.77,511.34 3.19,0.92 c -1,3.78 -2,7.38 -2.94,11 -2.32,8.56 -4.62,17.12 -7,25.65 a 33.67,33.67 0 0 1 -2.15,5.34 c -0.22,0.45 -1,0.61 -2.2,1.24 1.11,-3 -1,-5.59 0.82,-7.94 1.57,-0.82 0.88,-2.33 1.09,-3.57 v 0 c 0.22,-0.84 0.43,-1.68 0.65,-2.52 v 0 a 13.12,13.12 0 0 0 1.2,-2.4 c 2.43,-9.18 4.88,-18.45 7.34,-27.72 z"
       transform="translate(55.45)"
       id="path71" />
    <path
       class="cls-18"
       d="m 267.61,528.58 c 1.57,0 1.9,1.35 2.45,2.4 4.73,8.85 12,15 20.7,19.68 a 20.8,20.8 0 0 0 2.55,1 2.07,2.07 0 0 1 1.55,2 c -1.2,-0.15 -2.41,-0.23 -3.59,-0.47 -8.25,-1.7 -14.72,-6.34 -20.31,-12.4 a 3.62,3.62 0 0 1 -0.89,-1.55 c -0.84,-3.53 -1.64,-7.1 -2.46,-10.66 z"
       transform="translate(55.45)"
       id="path72" />
    <path
       class="cls-25"
       d="m 422.48,361.47 c 0,-0.47 0.1,-1 -0.11,-1.39 -4.35,-7.11 -4.23,-14.66 -1.89,-22.27 a 37.83,37.83 0 0 1 18.75,-23 27.82,27.82 0 0 1 2.65,-1.09 l 0.32,0.56 a 5.52,5.52 0 0 1 -1.13,1 c -12.46,6.3 -19.25,16.56 -20.85,30.27 a 21.66,21.66 0 0 0 4.29,15.66 z"
       transform="translate(55.45)"
       id="path73" />
    <path
       class="cls-3"
       d="m 286.2,522.21 -0.21,-6 12.49,0.66 -0.81,5.78 z"
       transform="translate(55.45)"
       id="path74" />
    <path
       class="cls-13"
       d="m 420.39,669.6 -5.79,2.53 c -0.45,-3.48 -0.86,-6.69 -1.3,-10.12 l 5.94,-3.54 c 0.41,3.92 0.76,7.44 1.15,11.13 z"
       transform="translate(55.45)"
       id="path75" />
    <path
       class="cls-25"
       d="m 431,361.47 c -0.52,-1.65 -1.08,-3.3 -1.55,-5 -3.43,-12.07 0.69,-24.12 10.74,-31.35 0.77,-0.55 1.46,-1.46 3.27,-1.14 a 69.79,69.79 0 0 0 -5.51,4.65 33.7,33.7 0 0 0 -4.6,5.73 25.68,25.68 0 0 0 -2.8,6.45 27.31,27.31 0 0 0 -1,7 33.94,33.94 0 0 0 0.78,7.31 62.9,62.9 0 0 0 2.16,6.7 q -0.71,-0.15 -1.49,-0.35 z"
       transform="translate(55.45)"
       id="path76" />
    <path
       class="cls-17"
       d="m 432.85,396.69 c -1.29,-0.14 -2.06,-0.71 -2.07,-2.14 a 2.24,2.24 0 0 1 1.57,-2.36 c 0.76,-0.27 1.56,-0.47 2.34,-0.7 l 7.76,2.39 c -0.34,1.29 -0.67,2.58 -1,3.86 l -2.65,-0.34 z"
       transform="translate(55.45)"
       id="path77" />
    <path
       class="cls-20"
       d="m 247.85,541 c -9.12,-4.06 -17.44,-1.9 -24.12,6.29 l -1.76,-0.19 c 3.78,-5.36 9.15,-8.29 15.37,-9.68 3.68,-0.82 7.25,0.18 10.61,1.8 0.31,0.15 0.45,0.64 0.66,1 z"
       transform="translate(55.45)"
       id="path78" />
    <path
       class="cls-25"
       d="m 437.32,362.45 a 29.15,29.15 0 0 1 -1.28,-4.08 25.63,25.63 0 0 1 7.1,-23.12 6,6 0 0 1 1.38,-0.8 l 0.47,0.51 c -0.55,0.61 -1.11,1.2 -1.65,1.82 -5.25,6.08 -7.51,13.07 -6.17,21 0.28,1.66 1.27,3.19 1.93,4.78 z"
       transform="translate(55.45)"
       id="path79" />
    <path
       class="cls-17"
       d="m 439.05,404.86 -7.29,-1.39 1.24,-5.47 7.53,1.48 z"
       transform="translate(55.45)"
       id="path80" />
    <path
       class="cls-21"
       d="m 408.77,511.34 c -2.47,9.27 -4.92,18.55 -7.42,27.81 a 13.12,13.12 0 0 1 -1.2,2.4 c 0.65,-3.09 1.22,-6.2 2,-9.27 1.57,-6.56 3.23,-13.09 4.86,-19.64 0.19,-0.94 0.14,-2.31 1.76,-1.3 z"
       transform="translate(55.45)"
       id="path81" />
    <path
       class="cls-24"
       d="m 235.9,505.75 c 2.1,2.1 1.57,4.93 2.08,7.47 -1.6,0.57 -3.15,1.45 -5.24,1 v -7.47 z"
       transform="translate(55.45)"
       id="path82" />
    <path
       class="cls-17"
       d="m 435.2,409.44 -5.76,-0.36 c -1.18,-0.06 -2.14,-0.66 -2,-1.8 A 3.36,3.36 0 0 1 429,405 a 5.8,5.8 0 0 1 3.24,-0.28 25.74,25.74 0 0 1 3.77,1.11 c -0.26,1.17 -0.53,2.4 -0.81,3.61 z"
       transform="translate(55.45)"
       id="path83" />
    <path
       class="cls-26"
       d="m 441.44,397.75 c 0.34,-1.29 0.67,-2.58 1,-3.86 l 3.33,0.85 c 0.76,0.48 1.53,0.95 2.28,1.46 1.39,0.95 1.88,2.22 1.21,3.27 -0.77,1.24 -1.86,0.87 -2.94,0.47 a 11,11 0 0 0 -1.16,-0.31 z"
       transform="translate(55.45)"
       id="path84" />
    <path
       class="cls-26"
       d="m 439.05,404.86 1.47,-5.39 4.54,1.55 -1.23,5.85 z"
       transform="translate(55.45)"
       id="path85" />
    <path
       class="cls-26"
       d="m 437.81,406.48 c 2.56,0.18 4.54,1.62 6.51,3.06 0.79,0.58 1.4,1.52 0.55,2.31 a 2.9,2.9 0 0 1 -2.4,0.58 53.7,53.7 0 0 1 -5.31,-2.28 c 0.22,-1.22 0.43,-2.45 0.65,-3.67 z"
       transform="translate(55.45)"
       id="path86" />
    <path
       class="cls-25"
       d="m 468,370.76 c 2.82,-2.79 5.75,-5.49 8.43,-8.41 2.11,-2.29 4.27,-4.62 5.44,-7.85 0.14,0.48 0.5,1 0.37,1.42 a 9.3,9.3 0 0 1 -1.24,2.43 52,52 0 0 1 -12.55,12.91 z"
       transform="translate(55.45)"
       id="path87" />
    <path
       class="cls-25"
       d="m 446.4,363.81 a 24.61,24.61 0 0 1 2.74,-16.33 c 0.84,-1.55 1.81,-3.14 4.37,-3.6 a 9.34,9.34 0 0 1 -0.8,1.34 c -5.36,5.47 -6.31,12.08 -5,19.27 z"
       transform="translate(55.45)"
       id="path88" />
    <path
       class="cls-25"
       d="m 454.4,366.22 c 2,-4.26 3.93,-8.52 5.92,-12.77 0.1,-0.21 0.47,-0.29 1.21,-0.72 a 26.32,26.32 0 0 1 -0.87,2.59 c -1.47,3 -3,6 -4.45,9.09 a 9.85,9.85 0 0 0 -0.45,2.52 z"
       transform="translate(55.45)"
       id="path90" />
    <path
       class="cls-25"
       d="M 445.06,401 440.52,399.45 433,398 c -0.05,-0.43 -0.09,-0.86 -0.14,-1.3 l 5.94,0.71 2.65,0.34 3.73,1.88 c -0.04,0.46 -0.08,0.93 -0.12,1.37 z"
       transform="translate(55.45)"
       id="path91" />
    <path
       class="cls-25"
       d="m 445.78,394.74 -3.33,-0.85 -7.76,-2.39 c 0,-0.36 0,-0.72 0,-1.08 l 9.22,1.86 1.86,1.29 z"
       transform="translate(55.45)"
       id="path93" />
    <path
       class="cls-17"
       d="m 434.42,413 h -4.75 c 0.1,-0.87 0.2,-1.68 0.34,-2.82 l 4.62,0.6 z"
       transform="translate(55.45)"
       id="path94" />
    <path
       class="cls-25"
       d="m 434.42,413 0.21,-2.22 5.07,2 c -0.11,0.77 -0.21,1.55 -0.32,2.32 z"
       transform="translate(55.45)"
       id="path95" />
    <path
       class="cls-25"
       d="m 437.81,406.48 c -0.21,1.22 -0.43,2.44 -0.64,3.66 l -2,-0.71 c 0.28,-1.21 0.56,-2.42 0.83,-3.63 0.62,0.2 1.21,0.46 1.81,0.68 z"
       transform="translate(55.45)"
       id="path96" />
    <path
       class="cls-26"
       d="m 439.38,415.14 c 0.11,-0.77 0.21,-1.55 0.32,-2.32 2.13,0.79 2.13,0.79 1.4,3.43 z"
       transform="translate(55.45)"
       id="path97" />
    <path
       class="cls-25"
       d="m 417.55,358.2 1.83,3.8 -1.12,0.06 -1.46,-3.06 z"
       transform="translate(55.45)"
       id="path98" />
    <path
       class="cls-21"
       d="m 399.57,544 c -0.21,1.24 0.48,2.75 -1.09,3.57 0.36,-1.24 0.73,-2.43 1.09,-3.57 z"
       transform="translate(55.45)"
       id="path99" />
    <path
       class="cls-21"
       d="m 400.18,541.49 c -0.22,0.84 -0.43,1.68 -0.65,2.52 0.22,-0.84 0.47,-1.68 0.65,-2.52 z"
       transform="translate(55.45)"
       id="path101" />
    <path
       class="cls-11"
       d="m 488.74,341.42 c 0,0.25 0,0.49 -0.05,0.74 h -0.17 l 0.09,-0.74 z"
       transform="translate(55.45)"
       id="path102" />
    <path
       class="cls-6"
       d="m 289.23,577.87 -0.53,0.64 z"
       transform="translate(55.45)"
       id="path105" />
    <path
       class="cls-27"
       d="m 211,574.2 a 28.82,28.82 0 0 1 -0.05,11 c -0.43,1.21 -0.87,2.41 -1.3,3.62 -1.81,2.58 -3.62,5.15 -5.58,8 l 5.16,5 c -3.31,-0.12 -5,-2.54 -7.13,-4.28 -2.13,-1.74 -4.06,-3.74 -6.15,-5.69 -6.68,5.7 -14.46,6.32 -22.6,5.31 a 30.64,30.64 0 0 1 -4.89,-2.46 c -1.81,-1.32 -1.63,-2.22 -0.12,-4 a 11.81,11.81 0 0 1 6,-3.48 36.88,36.88 0 0 1 13.71,-1.13 l 2.43,0.18 -8.4,-10 c -3.05,3.09 -6.83,3.18 -10.65,3 a 29.69,29.69 0 0 1 -12.41,-3.19 13.1,13.1 0 0 1 -5.93,-5.39 c 1.63,-2.45 4.1,-3.47 6.89,-3.91 a 26.92,26.92 0 0 1 11.25,0.91 l 3,0.79 h 1 l -0.42,-0.64 -5.7,-8.9 a 22.67,22.67 0 0 1 -15.83,-4.86 c -3.21,-2.45 -6.46,-5.09 -8.13,-8.91 0.76,-1.6 2,-1.81 3.42,-1.88 a 20.56,20.56 0 0 1 9,1.48 l 3.72,1.48 0.73,0.17 -0.27,-0.69 c -0.58,-4.13 -3.18,-7.31 -5.3,-10.65 a 27.59,27.59 0 0 1 -4.17,-13.36 c -0.13,-2.06 0.61,-4.22 1.18,-6.27 0.4,-1.43 1.47,-1.8 2.57,-0.82 a 20.92,20.92 0 0 1 4.47,5 29.82,29.82 0 0 1 3.31,20.85 7.27,7.27 0 0 0 0.74,5.3 113.81,113.81 0 0 0 6,10.11 51.76,51.76 0 0 1 0.9,-5.86 c 1,-3.55 2.12,-7.06 3.29,-10.55 a 8.51,8.51 0 0 1 1.4,-2.37 c 1.24,-1.58 2,-1.62 3.58,-0.4 a 8.43,8.43 0 0 1 2.89,5.28 25.72,25.72 0 0 1 -1.05,13.37 c -1.19,3.58 -2.85,7 -4.56,11.1 l 6.44,7.64 c 1.52,-12.67 3.58,-17.56 8.94,-21.35 a 12,12 0 0 1 4.37,7.76 c 1,6.26 -0.84,11.78 -4.49,16.79 -0.84,1.16 -1.81,2.22 -2.92,3.57 l 5.69,6.31 4,4.32 0.48,-0.34 c -0.14,-1.3 -0.27,-2.59 -0.41,-3.89 0.8,-4 1.43,-8.06 2.49,-12 a 20.37,20.37 0 0 1 2.81,-5.41 4.5,4.5 0 0 1 3.63,-2.27 z"
       transform="translate(55.45)"
       id="path108" />
    <path
       class="cls-27"
       d="m 289.83,632.34 9.35,-0.18 h 6.16 l 0.64,-2.65 c 1.18,-3.24 2.31,-6.49 3.56,-9.71 a 31.24,31.24 0 0 1 1.75,-3.34 h 0.77 l 3.62,10.94 1.2,5 h 15.85 c 0.77,1.36 -0.05,1.74 -0.72,2.21 q -4.65,3.29 -9.28,6.59 c -0.82,0.59 -1.63,1.2 -2.38,1.75 1.32,5.23 2.61,10.27 3.85,15.33 0.05,0.18 -0.32,0.47 -0.7,1 -4.43,-2.93 -8.58,-6.18 -13.05,-9.45 -2.26,1.54 -4.49,3.14 -6.8,4.62 -2.31,1.48 -4.26,3.28 -6.95,4.24 0.16,-2.89 1.35,-5.35 2.15,-7.91 0.8,-2.56 1.65,-5.06 2.53,-7.77 l -10.18,-7.94 c -0.87,-0.68 -1.89,-1.32 -1.37,-2.73 z"
       transform="translate(55.45)"
       id="path109" />
    <path
       class="cls-8"
       d="m 199.1,587.2 c 0.14,1.3 0.27,2.59 0.41,3.89 l -0.48,0.34 -4,-4.32 z"
       transform="translate(55.45)"
       id="path110" />
    <path
       class="cls-28"
       d="m 303.13,438.76 c -4.84,-15.27 -2,-29.38 6.65,-42.49 A 25.62,25.62 0 0 1 322.1,386 c 6.56,-2.47 12.75,-0.79 17,4.73 a 52.11,52.11 0 0 1 3.21,5.22 2.36,2.36 0 0 0 0,0.6 c 5.1,15.79 1.73,30.13 -7.61,43.35 a 25.19,25.19 0 0 1 -9.74,8.29 c -7.54,3.61 -15,1.56 -19.58,-5.47 -0.75,-1.3 -1.47,-2.65 -2.25,-3.96 z"
       transform="translate(55.45)"
       id="path112" />
    <path
       class="cls-28"
       d="m 249.93,432.72 c -5.14,-17 -0.74,-31.93 10.4,-45.15 a 25.76,25.76 0 0 1 6.94,-5.48 c 7.94,-4.52 15.94,-2.1 20.35,5.92 0.64,1.16 1.14,2.4 1.71,3.6 0.39,2.1 0.93,4.19 1.15,6.31 1.29,12.7 -2.17,24.12 -9.6,34.38 a 28.62,28.62 0 0 1 -8.49,7.91 c -8.82,5.25 -16.45,2.36 -20.72,-4.63 -0.59,-0.96 -1.17,-1.91 -1.74,-2.86 z"
       transform="translate(55.45)"
       id="path113" />
    <path
       class="cls-5"
       d="m 249.93,432.72 c 0.58,0.95 1.15,1.91 1.73,2.85 4.27,7 11.9,9.87 20.72,4.63 a 28.49,28.49 0 0 0 8.49,-7.91 c 7.44,-10.26 10.89,-21.68 9.6,-34.38 -0.22,-2.12 -0.76,-4.21 -1.15,-6.31 a 7.88,7.88 0 0 1 1.57,1.71 28.49,28.49 0 0 1 2.45,15.6 48,48 0 0 1 -4.27,15.33 c -4,8.54 -9.49,15.87 -18.11,20.25 -5.06,2.58 -10.33,3 -15.12,-0.55 -3.67,-2.7 -6,-6.39 -5.91,-11.22 z"
       transform="translate(55.45)"
       id="path114" />
    <path
       class="cls-5"
       d="m 303.13,438.76 c 0.78,1.32 1.51,2.67 2.34,3.94 4.59,7 12,9.08 19.58,5.47 a 25.12,25.12 0 0 0 9.74,-8.29 c 9.34,-13.22 12.71,-27.56 7.61,-43.35 a 3,3 0 0 1 0,-0.6 11.75,11.75 0 0 1 2,2.06 c 2.7,4.61 3.16,9.72 2.61,14.86 a 56,56 0 0 1 -6.73,21.51 c -3.62,6.5 -7.82,12.53 -14.38,16.41 a 30.79,30.79 0 0 1 -6.43,2.76 9.73,9.73 0 0 1 -9.49,-2.12 20.35,20.35 0 0 1 -6.91,-10.6 7.89,7.89 0 0 1 0.06,-2.05 z"
       transform="translate(55.45)"
       id="path115" />
    <path
       class="cls-4"
       d="m 275.08,462.63 c 0.77,-2.21 1.19,-4.49 2.31,-6.35 2,-3.37 6,-3.27 7.94,0.12 a 12.31,12.31 0 0 1 0,12.88 c -2.1,3.68 -6.37,3.6 -8.3,-0.16 -1.03,-1.92 -1.29,-4.22 -1.95,-6.49 z"
       transform="translate(55.45)"
       id="path116" />
    <path
       class="cls-29"
       d="m 349.19,507.31 c 0.12,0.09 0,0 -0.05,0 -3.08,-0.26 -5.61,-1.38 -6.53,-4.6 -1,-3.45 -0.59,-6.69 1.93,-9.48 1.61,-1.78 3.37,-3.36 5.8,-3.82 3.11,-0.59 4.48,-2.58 4.75,-5.55 0.05,-0.51 0.06,-1 0.12,-1.54 0.93,-7.21 7.28,-9.93 12.52,-9.8 a 7.06,7.06 0 0 1 6.53,6.62 25.8,25.8 0 0 1 -0.46,4.86 c -0.35,2.32 0.12,3.4 2.22,4.49 1.28,0.66 2.6,1.22 3.88,1.87 3.52,1.78 4.52,4.19 3.79,8.06 -0.66,3.51 -2.63,6.2 -4.94,8.69 -1.92,2.07 -3.85,2.29 -6.42,1.12 -0.37,-0.17 -0.72,-0.39 -1.1,-0.56 -2.77,-1.26 -4.7,-0.65 -6.07,2.13 -1.05,2.14 -2,4.21 -4.32,5.4 -3.36,1.76 -9,0.35 -10.77,-3 -0.66,-1.43 -0.58,-3.15 -0.88,-4.89 z"
       transform="translate(55.45)"
       id="path119" />
    <path
       class="cls-29"
       d="m 375,518 a 22.42,22.42 0 0 1 -0.19,2.27 2.83,2.83 0 0 1 -2.52,2.37 3.35,3.35 0 0 1 -2.65,-1 12,12 0 0 1 -1.25,-3.92 c -0.15,-0.66 0.12,-1.4 0,-2.08 -0.26,-2 0.16,-3.09 1.47,-3.52 a 3.19,3.19 0 0 1 3.63,1.66 34.49,34.49 0 0 1 1.51,4.22 z"
       transform="translate(55.45)"
       id="path120" />
    <path
       class="cls-27"
       d="m 292.64,714.83 c -3.64,0 -6.2,-0.6 -8.35,-2.38 -2.74,-2.26 -2.69,-5.32 0.08,-7.55 3.76,-3 11.24,-3 15,0 2.87,2.31 2.86,5.5 -0.11,7.74 a 11,11 0 0 1 -6.62,2.19 z"
       transform="translate(55.45)"
       id="path121" />
    <path
       class="cls-9"
       d="m 408.51,403.26 c -4.48,1.31 -8.87,1.37 -13.11,-0.87 a 59,59 0 0 0 6.55,-0.92 c 2.62,-0.67 4.79,-0.35 6.56,1.79 z"
       transform="translate(55.45)"
       id="path122" />
    <path
       class="cls-9"
       d="m 392.33,400.92 -0.79,-0.68 z"
       transform="translate(55.45)"
       id="path123" />
  </g>
</svg>
